<svg width="83" height="75" viewBox="0 0 83 75" fill="none" xmlns="http://www.w3.org/2000/svg">
<path d="M0.923683 12.9691L12.4722 2.52386C13.114 1.9434 13.7592 1.36604 14.3975 0.785571C14.9466 0.282709 15.5747 0.0250691 16.34 0.319958C17.1053 0.614846 17.3696 1.17048 17.3352 1.89373C17.3078 2.82496 17.3696 3.72825 17.3147 4.64396C17.2803 5.23994 17.4039 5.46033 18.152 5.44481C20.5544 5.39204 22.9568 5.39204 25.3591 5.44481C27.3291 5.49131 29.2838 5.77205 31.1728 6.27981C32.2024 6.54987 32.7138 7.27312 32.4838 8.04293C32.2333 8.87483 31.3822 9.31871 30.3629 9.0828C27.7722 8.51493 25.1103 8.25716 22.4454 8.31609C20.2558 8.33782 18.0697 8.31609 15.8801 8.31609C14.775 8.31609 14.1641 7.74494 14.1332 6.76405C14.1332 6.29223 14.1332 5.83282 14.1332 5.23373C13.9616 5.36721 13.8861 5.41998 13.8209 5.47896C10.6704 8.32851 7.52675 11.1874 4.3625 14.0245C4.00214 14.3349 4.0193 14.5025 4.3625 14.813C7.50845 17.6315 10.643 20.4614 13.766 23.3026L14.1264 23.6131V22.7656C14.1264 20.7852 14.4696 20.4841 16.6866 20.4841H23.9726C24.3986 20.4706 24.825 20.482 25.2493 20.5183C27.8775 20.8089 30.2933 21.9702 32.0301 23.7778C33.7668 25.5854 34.7013 27.9111 34.6528 30.3055C34.5533 36.1691 34.6288 42.0327 34.6288 47.8994V48.6351C37.7622 43.799 42.0452 40.2199 47.6427 37.9446C48.0546 37.777 48.0889 37.5411 48.082 37.209C48.0168 34.2663 48.1816 31.3112 47.9482 28.3778C47.6987 25.1324 46.6303 21.9819 44.8251 19.168C43.7127 17.466 42.3619 15.901 40.8063 14.5119C39.9346 13.711 39.9037 12.8512 40.6279 12.2241C41.352 11.5971 42.2683 11.6871 43.1503 12.488C44.2477 13.4744 45.2564 14.5384 46.167 15.6697C48.4999 18.6028 50.0867 21.9662 50.8139 25.519C51.3733 28.173 51.2497 30.8487 51.2703 33.5244C51.2703 34.5767 51.2703 35.629 51.2703 36.7309C53.5273 36.1619 55.8566 35.8614 58.1994 35.837C60.1728 35.837 62.1496 35.8183 64.1229 35.837C64.6309 35.837 64.7441 35.7128 64.7304 35.2751C64.6926 34.2135 64.7064 33.1488 64.7304 32.0872C64.7129 31.7346 64.8415 31.3887 65.0909 31.1172C65.3403 30.8457 65.6927 30.6681 66.0792 30.619C66.8273 30.5228 67.3318 30.8859 67.8191 31.3267C72.1663 35.2586 76.5065 39.1842 80.8399 43.1036C81.2829 43.4876 81.6767 43.9156 82.0137 44.3794V45.2486C81.855 45.7845 81.5198 46.2641 81.0527 46.6237C76.7994 50.4541 72.5541 54.2908 68.3168 58.1336C68.1328 58.3089 67.9392 58.4757 67.7368 58.6334C67.0984 59.099 66.4121 59.3598 65.5952 59.0245C64.7784 58.6893 64.5108 58.0653 64.5108 57.3111C64.5108 56.4667 64.4867 55.6193 64.5108 54.7781C64.5313 54.179 64.2671 53.9679 63.615 53.9773C62.0672 54.0052 60.5263 53.9555 58.975 53.9959C57.4238 54.0362 55.9103 54.328 54.5959 55.1785C52.3891 56.6095 51.5071 58.6086 51.49 60.9925C51.49 64.8292 51.49 68.6658 51.49 72.4994C51.49 73.6603 51.2085 74.0266 50.1549 74.3618H32.5422C31.6533 73.949 31.4062 73.2878 31.4062 72.4031C31.4291 58.9521 31.4291 45.5083 31.4062 32.0717C31.4199 31.0844 31.3787 30.0971 31.2827 29.1135C30.9772 26.385 28.0978 23.7745 25.1052 23.5044C22.6822 23.284 20.2558 23.4578 17.8329 23.374C17.3799 23.374 17.3112 23.5168 17.3181 23.8707C17.3387 24.9788 17.3524 26.0901 17.3181 27.2014C17.3169 27.4619 17.2362 27.7171 17.0849 27.9388C16.9336 28.1605 16.7176 28.3401 16.4607 28.4579C16.2038 28.5757 15.9159 28.6271 15.6288 28.6064C15.3417 28.5857 15.0664 28.4937 14.8334 28.3406C14.5944 28.189 14.3736 28.0152 14.1744 27.8222L0.927116 15.8435C-0.30838 14.7198 -0.30838 14.0835 0.923683 12.9691ZM35.3083 71.475C36.3722 71.4316 37.443 71.4347 38.5069 71.475C39.0114 71.4936 39.1212 71.354 39.1178 70.9132C39.0938 67.9457 39.1178 64.9782 39.0972 62.0106C39.0698 61.7586 39.1094 61.5043 39.2126 61.2688C39.3159 61.0334 39.4799 60.8237 39.6909 60.6573C39.9097 60.4766 40.1836 60.3598 40.4768 60.3221C40.7701 60.2845 41.0691 60.3277 41.3348 60.4462C41.6436 60.5646 41.9036 60.7675 42.0784 61.0264C42.2532 61.2852 42.334 61.5871 42.3095 61.8896C42.3095 64.7826 42.3301 67.6787 42.2889 70.581C42.2889 71.2639 42.3919 71.5464 43.2499 71.4905C44.4957 71.4067 45.7552 71.4688 47.025 71.4688C48.0889 71.4688 48.0889 71.4688 48.0889 70.5376C48.0889 67.2266 48.0889 63.9155 48.0889 60.6045C48.0889 55.0637 52.7083 50.8887 58.8378 50.8825H66.0448C67.3593 50.8825 67.9393 51.4133 67.9461 52.599C67.9461 53.0088 67.9461 53.4185 67.9461 54.0269C68.9448 53.1174 69.8165 52.3228 70.6917 51.5281C73.0163 49.4215 75.35 47.3138 77.6929 45.2051C77.9811 44.9475 78.1081 44.7985 77.7443 44.4725C74.5389 41.6044 71.3575 38.7144 68.1692 35.8339C68.092 35.779 68.0106 35.7292 67.9255 35.6849C67.9255 36.2063 67.9255 36.6564 67.9255 37.1065C67.9255 38.1836 67.3009 38.7331 66.0894 38.7362C63.742 38.7362 61.3946 38.7144 59.0471 38.7362C55.4539 38.7796 51.9704 39.3322 48.6895 40.7321C42.4525 43.3996 38.1923 47.6739 35.9089 53.5551C35.0495 55.8653 34.6181 58.2881 34.6322 60.7256C34.5911 64.1028 34.6322 67.48 34.6082 70.8573C34.6014 71.3633 34.7489 71.4967 35.3083 71.475Z" fill="url(#paint0_linear_31_3)"/>
<defs>
<linearGradient id="paint0_linear_31_3" x1="41.0069" y1="0.195312" x2="41.0069" y2="74.3618" gradientUnits="userSpaceOnUse">
<stop stop-color="#FFB978"/>
<stop offset="1" stop-color="#EE6A40"/>
</linearGradient>
</defs>
</svg>
