<svg width="67" height="86" viewBox="0 0 67 86" fill="none" xmlns="http://www.w3.org/2000/svg">
<path d="M20.1853 15.4084C18.846 16.4089 17.7142 17.6169 16.8426 18.9759C16.7739 19.1006 16.6772 19.2111 16.5586 19.3001C16.44 19.3891 16.3021 19.4548 16.1538 19.4928C16.0055 19.5309 15.8501 19.5405 15.6975 19.5211C15.5449 19.5018 15.3984 19.4538 15.2674 19.3802C15.1272 19.3081 15.0053 19.21 14.9097 19.0924C14.8142 18.9748 14.7471 18.8404 14.7128 18.6978C14.6785 18.5552 14.6778 18.4076 14.7107 18.2648C14.7436 18.1219 14.8095 17.9869 14.9039 17.8686C15.8792 16.3111 17.1722 14.9352 18.7145 13.8136C18.9249 13.6664 19.18 13.5807 19.4457 13.568C19.6792 13.5607 19.9091 13.6208 20.1022 13.7398C20.2953 13.8587 20.4415 14.0302 20.5195 14.2293C20.6184 14.4312 20.6392 14.6574 20.5786 14.8713C20.5179 15.0852 20.3794 15.2744 20.1853 15.4084Z" fill="url(#paint0_linear_31_12)"/>
<path d="M27 13.0223C26.1268 13.3398 25.241 13.6383 24.3552 13.9255C24.1398 14.0168 23.9059 14.0666 23.6682 14.0718C23.4305 14.077 23.1941 14.0375 22.9742 13.9558C22.7542 13.8741 22.5554 13.7519 22.3904 13.5971C22.2253 13.4423 22.0976 13.2581 22.0153 13.0563C21.9171 12.8688 21.8625 12.665 21.8551 12.4576C21.8476 12.2502 21.8875 12.0437 21.9722 11.8508C22.0568 11.6579 22.1845 11.4829 22.3472 11.3366C22.5099 11.1903 22.7041 11.0759 22.9179 11.0004C23.8654 10.594 24.8426 10.2467 25.8426 9.96114C26.1174 9.88499 26.4082 9.86857 26.6913 9.91323C26.9744 9.95788 27.2418 10.0624 27.4719 10.2181C27.7019 10.3739 27.8881 10.5766 28.0152 10.8097C28.1423 11.0429 28.2068 11.2998 28.2034 11.5597C28.1875 11.8844 28.0643 12.1973 27.8498 12.458C27.6353 12.7187 27.3393 12.9153 27 13.0223Z" fill="url(#paint1_linear_31_12)"/>
<path d="M11.7995 25.2343C14.1058 25.0646 16.4261 25.1356 18.7145 25.4459C25.8844 26.4323 31.4665 29.3535 34.0236 35.8687C34.3621 35.812 34.3997 35.5361 34.5208 35.351C36.0789 32.8814 38.5473 30.9858 41.4943 29.996C44.7241 28.8396 48.0793 28.5221 51.5222 28.6242C53.2478 28.6771 53.8912 29.2364 53.9664 30.8009C54.0764 32.69 53.9361 34.5842 53.5486 36.4431C52.596 40.8382 50.4191 44.4624 45.7812 46.5485C42.9024 47.8447 39.823 48.3284 36.6601 48.438C35.8662 48.4645 35.5988 48.627 35.6281 49.3903C35.6991 51.2156 35.6281 53.0409 35.6281 54.8663C35.6281 55.0665 35.6281 55.2668 35.6281 55.4633C35.557 56.6273 34.876 57.3113 33.7938 57.3038C32.7116 57.2962 32.0097 56.582 31.9972 55.4369C31.9972 53.4151 31.9637 51.3857 31.9972 49.3639C31.9972 48.7101 31.8885 48.4645 31.0779 48.4569C28.7678 48.4506 26.466 48.2059 24.2173 47.7275C18.5348 46.4653 14.1477 43.7444 11.8245 38.703C10.053 34.8597 9.60171 30.8425 9.93597 26.7271C10.0237 25.8163 10.7131 25.325 11.7995 25.2343ZM37.2242 45.154C39.2334 45.0899 41.2176 44.73 43.0988 44.0883C47.3147 42.6409 49.2408 39.61 50.0096 35.8196C50.2269 34.7501 50.2687 33.639 50.394 32.5658C50.4609 32.0405 50.3439 31.7646 49.6587 31.81C47.1726 31.9725 44.7241 32.237 42.4052 33.1515C38.298 34.769 36.61 37.8754 35.9247 41.6129C35.7402 42.2861 35.6615 42.9795 35.6907 43.6726C35.674 45.1918 35.6782 45.2106 37.2242 45.154ZM17.2605 40.5586C19.5084 43.0414 22.6379 44.1223 25.9972 44.7383C27.3815 45.0166 28.7949 45.1598 30.2131 45.1653C31.9596 45.1955 32.0097 45.1955 31.9428 43.563C31.7924 39.7272 30.9777 36.0652 28.1824 33.0193C25.8551 30.5024 22.6629 29.4178 19.2242 28.8169C17.5358 28.5096 15.8152 28.3715 14.0933 28.405C13.7716 28.405 13.4332 28.3332 13.4374 28.8207C13.5 33.0571 14.1477 37.146 17.2605 40.5586Z" fill="url(#paint2_linear_31_12)"/>
<path d="M0.710434 24.1924C4.11572 9.58991 21.1839 -3.1797 40.4833 0.705226C59.3606 4.51079 70.8634 22.3028 65.0472 38.9725C62.696 45.9895 57.5647 51.9749 50.6364 55.7819C48.8166 56.7408 47.3789 58.1959 46.5292 59.9389C46.2576 60.5209 46.0069 61.0727 46.7214 61.6017C47.1392 61.9268 47.1392 62.4974 47.1142 63C47.1142 64.7951 47.1142 66.5864 47.1142 68.3777C47.1142 70.0707 47.1142 71.7789 47.1142 73.4568C47.1142 75.3464 46.6211 75.8452 44.5612 75.8225C43.8718 75.8225 43.6337 75.951 43.617 76.6237C43.5585 79.424 42.1671 81.6197 39.7228 83.3052C37.3872 84.9151 34.6838 85.1191 31.8928 84.9869C27.1379 84.7601 23.0307 81.0415 22.9638 76.7938C22.9638 75.8943 22.5878 75.7961 21.7563 75.8225C20.1268 75.8717 19.4625 75.2708 19.4583 73.8234C19.4583 70.1728 19.4583 66.5221 19.4583 62.864C19.4583 62.316 19.5251 61.7529 20.0098 61.4128C20.4945 61.0727 20.3942 60.6948 20.2271 60.298C19.4442 58.4261 17.9675 56.858 16.0488 55.8613C3.93605 49.1609 -2.1851 36.6105 0.710434 24.1924ZM26.4527 76.5935C26.7452 78.8609 27.9568 80.5388 30.3217 81.3514C32.2251 82.0107 34.3307 82.0107 36.234 81.3514C38.5696 80.5502 39.8231 78.8647 40.1114 76.6086C40.1824 76.053 40.0738 75.7885 39.3259 75.8074C37.3161 75.8641 35.3022 75.8074 33.2883 75.8074C31.2744 75.8074 29.2605 75.8414 27.2465 75.8074C26.5279 75.7923 26.3733 76.0115 26.4527 76.5935ZM23.085 71.6542C23.085 72.2173 23.2563 72.376 23.8789 72.376C30.1546 72.3533 36.429 72.3533 42.7019 72.376C43.337 72.376 43.4958 72.2059 43.4874 71.6466C43.4582 69.2922 43.454 66.9341 43.4874 64.5797C43.4874 63.9712 43.3203 63.7974 42.6518 63.805C39.5348 63.8428 36.4136 63.8239 33.2967 63.8239C30.1797 63.8239 27.1337 63.8465 24.0502 63.805C23.2688 63.805 23.0808 63.9977 23.0934 64.6855C23.1101 67.0096 23.1101 69.33 23.0808 71.6542H23.085ZM17.5237 52.8644C20.7786 54.6746 23.0683 57.0441 23.9708 60.4227C24.117 60.9706 24.4304 60.8988 24.8064 60.8988H33.2883C36.0794 60.8988 38.8663 60.8799 41.6448 60.8988C42.2548 60.8988 42.5222 60.7741 42.6768 60.2186C43.0884 58.7549 43.816 57.3793 44.8177 56.1709C45.8195 54.9626 47.0757 53.9455 48.5139 53.1781C55.9721 48.9606 60.6684 42.9859 62.3857 35.1518C65.0347 23.3005 58.2074 11.0373 46.1406 5.9015C26.6449 -2.38986 7.60456 9.96404 4.17003 25.0502C3.00177 30.3643 3.65387 35.8742 6.03923 40.8442C8.42458 45.8141 12.4297 50.0076 17.5196 52.8644H17.5237Z" fill="url(#paint3_linear_31_12)"/>
<defs>
<linearGradient id="paint0_linear_31_12" x1="17.6496" y1="13.5674" x2="17.6496" y2="19.5309" gradientUnits="userSpaceOnUse">
<stop stop-color="#FFB978"/>
<stop offset="1" stop-color="#EE6A40"/>
</linearGradient>
<linearGradient id="paint1_linear_31_12" x1="25.0288" y1="9.88867" x2="25.0288" y2="14.0723" gradientUnits="userSpaceOnUse">
<stop stop-color="#FFB978"/>
<stop offset="1" stop-color="#EE6A40"/>
</linearGradient>
<linearGradient id="paint2_linear_31_12" x1="31.9183" y1="25.1445" x2="31.9183" y2="57.3038" gradientUnits="userSpaceOnUse">
<stop stop-color="#FFB978"/>
<stop offset="1" stop-color="#EE6A40"/>
</linearGradient>
<linearGradient id="paint3_linear_31_12" x1="33.2815" y1="0" x2="33.2815" y2="85.0201" gradientUnits="userSpaceOnUse">
<stop stop-color="#FFB978"/>
<stop offset="1" stop-color="#EE6A40"/>
</linearGradient>
</defs>
</svg>
