<svg width="61" height="54" viewBox="0 0 61 54" fill="none" xmlns="http://www.w3.org/2000/svg">
<path d="M26.6707 49.9362C31.8663 49.9582 36.9201 48.2483 41.0276 45.0784C45.1351 41.9086 48.0604 37.4611 49.3379 32.4437C49.9558 30.1044 50.1783 27.6789 49.9965 25.2667C49.9204 24.3595 50.3032 23.6939 51.0284 23.4002C51.3503 23.2706 51.7057 23.2482 52.0416 23.3361C52.3774 23.424 52.6758 23.6176 52.8923 23.8881C53.1209 24.1622 53.2528 24.5033 53.268 24.8593C53.6864 33.5499 50.7121 40.8548 44.2025 46.6746C40.6298 49.9134 36.1922 52.0524 31.4258 52.8331C22.7526 54.2709 15.0613 52.0775 8.54218 46.1677C3.94407 42.006 1.09819 36.7831 0.285081 30.6506C-1.0487 20.6052 2.30597 12.2746 10.1755 5.83188C13.7397 2.91471 18.0484 1.04315 22.6194 0.426606C29.8756 -0.606127 36.5255 0.990346 42.4812 5.30604C43.0851 5.74424 43.4322 6.30324 43.2586 7.07068C43.1974 7.40257 43.03 7.70581 42.7814 7.93507C42.5329 8.16433 42.2165 8.30731 41.8797 8.34265C41.3542 8.43266 40.9287 8.21237 40.515 7.91392C37.8464 5.92423 34.7681 4.54897 31.5018 3.88721C24.9874 2.59393 18.9272 3.73088 13.4327 7.47099C8.2022 11.024 4.82375 15.9508 3.70632 22.1566C2.04206 31.3755 4.94025 39.0783 12.2297 45.0355C15.7722 47.93 19.9233 49.4649 24.4739 49.922C25.2055 49.9638 25.9387 49.9686 26.6707 49.9362Z" fill="url(#paint0_linear_34_114)"/>
<path d="M60.1817 5.91495C59.7968 4.93941 59.1732 4.07517 58.3677 3.40076C57.5622 2.72635 56.6004 2.26314 55.5696 2.05322C54.5387 1.8433 53.4716 1.89333 52.4651 2.19875C51.4586 2.50418 50.5446 3.05532 49.8063 3.80211C47.1316 6.4171 44.4997 9.07947 41.844 11.73C36.8607 16.6915 31.8814 21.6563 26.9061 26.6241C26.5994 26.9297 26.4306 27.0149 26.0906 26.6454C25.5414 26.0296 24.9304 25.4611 24.3407 24.8855C22.1867 22.7537 20.0874 20.5604 17.8572 18.5067C16.1668 16.941 14.077 16.536 11.8635 17.2419C7.20123 18.7317 5.91975 24.3478 9.41945 27.8629C14.0508 32.5055 18.6965 37.1354 23.3564 41.7527C25.2584 43.6334 27.7358 43.624 29.6426 41.7267C39.3 32.1099 48.9567 22.4916 58.6126 12.8717C59.4052 12.1023 60.0033 11.1566 60.3577 10.1122C60.4528 9.82323 60.4361 9.49873 60.6216 9.23817V7.34325C60.4766 6.87189 60.3648 6.3792 60.1817 5.91495ZM56.2945 10.5741C51.7329 15.1124 47.1688 19.6571 42.6024 24.2081C37.5668 29.2265 32.5305 34.2449 27.4933 39.2633C26.6659 40.0876 26.3046 40.0876 25.4891 39.2633C20.9116 34.7091 16.3341 30.1534 11.7565 25.5961C10.8412 24.6866 10.4608 23.6325 10.8151 22.389C10.9521 21.8499 11.2427 21.3618 11.6519 20.9835C12.0611 20.6053 12.5714 20.353 13.1212 20.2572C14.2767 20.0203 15.242 20.3993 16.0646 21.2236C17.8604 23.0222 19.6602 24.816 21.4639 26.6052L24.1838 29.3149C25.6698 30.7929 27.3055 30.8001 28.7843 29.3149C36.5017 21.6436 44.2167 13.966 51.9294 6.28209C52.859 5.35358 53.9217 4.97222 55.1985 5.33463C56.5109 5.71361 57.3549 6.87425 57.3549 8.65075C57.3644 9.17659 56.9531 9.92035 56.2945 10.5741Z" fill="url(#paint1_linear_34_114)"/>
<defs>
<linearGradient id="paint0_linear_34_114" x1="26.6533" y1="0.123047" x2="26.6533" y2="53.2594" gradientUnits="userSpaceOnUse">
<stop stop-color="#FFB978"/>
<stop offset="1" stop-color="#EE6A40"/>
</linearGradient>
<linearGradient id="paint1_linear_34_114" x1="34.0225" y1="1.92578" x2="34.0225" y2="43.1565" gradientUnits="userSpaceOnUse">
<stop stop-color="#FFB978"/>
<stop offset="1" stop-color="#EE6A40"/>
</linearGradient>
</defs>
</svg>
