<svg width="28" height="28" viewBox="0 0 28 28" fill="none" xmlns="http://www.w3.org/2000/svg">
<path d="M13.6497 0C13.5842 0.0411812 13.5085 0.0630306 13.4311 0.0630306C13.3538 0.0630306 13.278 0.0411812 13.2126 0L13.6497 0Z" fill="url(#paint0_linear_107_3922)"/>
<path d="M14.7415 0C14.676 0.0411812 14.6002 0.0630306 14.5229 0.0630306C14.4456 0.0630306 14.3698 0.0411812 14.3044 0L14.7415 0Z" fill="url(#paint1_linear_107_3922)"/>
<path d="M0 13.1016C0.0415386 13.1661 0.0636253 13.2413 0.0636253 13.3181C0.0636253 13.3948 0.0415386 13.47 0 13.5346L0 13.1016Z" fill="url(#paint2_linear_107_3922)"/>
<path d="M0 14.1836C0.0415386 14.2482 0.0636253 14.3233 0.0636253 14.4001C0.0636253 14.4769 0.0415386 14.552 0 14.6166L0 14.1836Z" fill="url(#paint3_linear_107_3922)"/>
<path d="M27.9329 12.2741C27.833 11.0995 27.5293 9.96742 27.1072 8.86609C26.3794 6.96304 25.2561 5.31377 23.8053 3.88888C23.2143 3.31279 22.5718 2.79209 21.8858 2.33333C20.2616 1.23807 18.4273 0.492615 16.4995 0.144336C15.9878 0.0472001 15.4714 0.0601972 14.9597 0H14.7415C14.5993 0.0451418 14.4466 0.0451418 14.3044 0L13.6497 0C13.5075 0.0451418 13.3548 0.0451418 13.2126 0L12.8849 0C12.5641 0.0567769 12.2371 0.0307827 11.9149 0.0752465C10.8973 0.217813 9.89907 0.475059 8.93928 0.842077C7.01981 1.56444 5.35823 2.67809 3.92103 4.11735C3.34777 4.69613 2.82826 5.32577 2.3689 5.99851C1.24993 7.61508 0.488945 9.45189 0.136812 11.3862C0.0547247 11.8472 0.0629334 12.3131 0 12.7762V13.1011C0.0458255 13.2418 0.0458255 13.3934 0 13.5341L0 14.1833C0.0458255 14.324 0.0458255 14.4756 0 14.6163L0 14.9412C0.057461 15.4885 0.0684059 16.0357 0.180592 16.5713C0.912945 20.1785 3.03809 23.3515 6.09497 25.4018C7.49581 26.3362 9.04921 27.0184 10.685 27.4178C12.2679 27.8132 13.8789 27.8179 15.4823 27.7003C17.5345 27.5491 19.443 26.8719 21.2058 25.8171C22.5795 25.0003 23.8028 23.9538 24.8224 22.7231C26.0115 21.3069 26.9003 19.6638 27.4349 17.8936C27.7249 16.9229 27.9329 15.9393 27.9609 14.92C27.9855 14.0369 28.0081 13.1538 27.9329 12.2741ZM13.9664 24.9866C7.7155 24.9757 2.72187 19.9328 2.75539 13.818C2.79028 7.59784 7.8571 2.73624 13.9603 2.7294C20.2358 2.72119 25.1939 7.78117 25.2048 13.8666C25.1734 20.0511 20.1209 24.9976 13.9664 24.9866Z" fill="url(#paint4_linear_107_3922)"/>
<path d="M23.3325 14.5109C23.0788 14.5274 22.8236 14.5171 22.5684 14.5144C22.0561 14.5096 21.6942 14.1819 21.686 13.7167C21.6778 13.268 22.0486 12.9068 22.5507 12.8897C22.8674 12.8788 23.1848 12.8897 23.5083 12.8897C23.3113 11.1016 22.6875 9.50568 21.5868 8.10131C19.8856 5.9301 17.6425 4.70906 14.8919 4.39302C14.7154 4.3725 14.673 4.42244 14.6867 4.58798C14.6977 4.80423 14.6977 5.0209 14.6867 5.23715C14.6839 5.45631 14.5951 5.66558 14.4396 5.81998C14.284 5.97438 14.0741 6.06158 13.8549 6.06281C13.398 6.05597 13.0539 5.69752 13.0477 5.21731C13.0443 4.94848 13.0477 4.67964 13.0477 4.40876C11.6372 4.54557 10.6214 4.89307 9.80254 5.31308C6.70101 6.90147 4.9081 9.41744 4.44636 12.8528C4.42789 12.9896 4.47577 13.0005 4.58317 13.0033C4.8821 13.0115 5.18309 12.9718 5.48065 13.0313C5.89519 13.1141 6.17224 13.4595 6.14556 13.8604C6.13723 14.0662 6.04936 14.2607 5.90044 14.403C5.75153 14.5453 5.55321 14.6242 5.34726 14.6231C5.09279 14.63 4.83764 14.6313 4.58317 14.6231C4.4402 14.6183 4.41421 14.6765 4.4361 14.801C4.4915 15.1198 4.52502 15.4433 4.59206 15.7587C5.07227 18.0078 6.2167 19.8525 8.02535 21.2927C9.48445 22.4556 11.1563 23.1048 13.0094 23.3182C13.1462 23.3339 13.1592 23.2806 13.1578 23.1732C13.1537 22.8941 13.1578 22.6143 13.1578 22.3345C13.1626 21.829 13.4958 21.4815 13.9732 21.4794C14.4507 21.4774 14.7941 21.8215 14.7975 22.3249C14.8012 22.6136 14.8012 22.9023 14.7975 23.191C14.7975 23.2929 14.8194 23.3394 14.9343 23.3189C15.2552 23.2628 15.5815 23.2306 15.8996 23.1629C18.2454 22.6613 20.1492 21.4678 21.6108 19.5826C22.7183 18.146 23.3332 16.5207 23.5261 14.7257C23.5419 14.5705 23.5165 14.502 23.3325 14.5109ZM17.3046 11.7063C17.0563 11.969 16.7929 12.2187 16.5357 12.4738C15.9128 13.0922 15.2894 13.7106 14.6655 14.329C14.199 14.79 13.7585 14.7935 13.2974 14.3365C11.7596 12.8138 10.2228 11.2906 8.68684 9.76699C8.49462 9.57682 8.3496 9.36887 8.34891 9.0542C8.35762 8.91019 8.40413 8.77102 8.48375 8.65071C8.56337 8.5304 8.67329 8.4332 8.80244 8.36891C8.9316 8.30461 9.07541 8.27548 9.2194 8.28447C9.36339 8.29345 9.50247 8.34023 9.62263 8.42008C9.71842 8.48833 9.80731 8.56576 9.88805 8.65129C11.1941 9.94462 12.498 11.2398 13.7995 12.5367C13.9452 12.6825 14.0163 12.6783 14.1573 12.5367C14.7982 11.8848 15.4494 11.2425 16.1034 10.6036C16.5049 10.2116 17.0529 10.2178 17.371 10.6036C17.6377 10.9299 17.6172 11.3738 17.3067 11.7063H17.3046Z" fill="url(#paint5_linear_107_3922)"/>
<defs>
<linearGradient id="paint0_linear_107_3922" x1="13.4311" y1="0" x2="13.4311" y2="0.0630306" gradientUnits="userSpaceOnUse">
<stop stop-color="#FFB978"/>
<stop offset="1" stop-color="#EE6A40"/>
</linearGradient>
<linearGradient id="paint1_linear_107_3922" x1="14.5229" y1="0" x2="14.5229" y2="0.0630306" gradientUnits="userSpaceOnUse">
<stop stop-color="#FFB978"/>
<stop offset="1" stop-color="#EE6A40"/>
</linearGradient>
<linearGradient id="paint2_linear_107_3922" x1="0.0318126" y1="13.1016" x2="0.0318126" y2="13.5346" gradientUnits="userSpaceOnUse">
<stop stop-color="#FFB978"/>
<stop offset="1" stop-color="#EE6A40"/>
</linearGradient>
<linearGradient id="paint3_linear_107_3922" x1="0.0318126" y1="14.1836" x2="0.0318126" y2="14.6166" gradientUnits="userSpaceOnUse">
<stop stop-color="#FFB978"/>
<stop offset="1" stop-color="#EE6A40"/>
</linearGradient>
<linearGradient id="paint4_linear_107_3922" x1="13.9922" y1="0" x2="13.9922" y2="27.7673" gradientUnits="userSpaceOnUse">
<stop stop-color="#FFB978"/>
<stop offset="1" stop-color="#EE6A40"/>
</linearGradient>
<linearGradient id="paint5_linear_107_3922" x1="13.9797" y1="4.38867" x2="13.9797" y2="23.3236" gradientUnits="userSpaceOnUse">
<stop stop-color="#FFB978"/>
<stop offset="1" stop-color="#EE6A40"/>
</linearGradient>
</defs>
</svg>
