<svg width="22" height="22" viewBox="0 0 22 22" fill="none" xmlns="http://www.w3.org/2000/svg">
<path d="M21.4489 2.21233V19.3143C21.3604 19.4808 21.3183 19.668 21.327 19.8564C21.1968 20.7199 20.7157 21.1989 19.8564 21.327C19.6687 21.3187 19.4823 21.3607 19.3164 21.4489H14.751C14.6332 21.3483 14.5417 21.2206 14.4842 21.0767C14.4267 20.9329 14.4051 20.7773 14.4211 20.6232C14.4043 18.6756 14.3917 16.728 14.4211 14.7825C14.4379 13.919 14.6144 13.7677 15.4884 13.7089C15.9086 13.6795 16.3876 13.7362 16.644 13.3076C16.9978 12.7713 17.2295 12.1638 17.3226 11.5281C17.3583 11.1961 17.0452 11.1268 16.77 11.1079C16.2721 11.0806 15.7742 11.1079 15.2741 11.0764C14.7321 11.0469 14.4505 10.7801 14.4337 10.236C14.4064 9.60568 14.398 8.95227 14.4337 8.31357C14.4736 7.5068 14.8539 7.02357 15.6544 7.05299C17.3352 7.09081 17.1251 6.50883 17.1104 5.30077C17.1104 4.63476 16.9129 4.46038 16.27 4.42256C15.4632 4.37187 14.6533 4.43553 13.8644 4.61165C12.3369 4.95831 11.2066 6.37017 11.1331 8.03204C11.0974 8.76739 11.1331 9.50273 11.0995 10.2402C11.0743 10.7843 10.8095 11.068 10.2591 11.0806C10.049 11.0806 9.83888 11.0806 9.61828 11.1037C9.19809 11.131 8.67074 10.9944 8.51527 11.5239C8.303 12.14 8.32318 12.8125 8.57199 13.4148C8.70436 13.7068 9.03841 13.711 9.32625 13.7068C11.1478 13.6795 11.1184 13.8644 11.1205 15.583C11.1205 17.1965 11.1205 18.8122 11.1205 20.4278C11.1205 20.806 11.1373 21.1968 10.7843 21.4657H2.21233C1.99068 21.3855 1.75989 21.3333 1.52531 21.3102C1.14852 21.2414 0.804339 21.0519 0.544721 20.7703C0.285102 20.4887 0.124142 20.1303 0.0861401 19.7492C0.02948 19.3701 0.000689447 18.9874 0 18.6042C0 13.3839 0 8.163 0 2.94137V2.73127C0.0231108 0.75005 0.75215 0 2.73127 0C8.09157 0 13.4533 0 18.8164 0C19.6021 0.0105049 20.3795 0.0693323 20.9531 0.752151C21.3207 1.18705 21.2619 1.73331 21.4489 2.21233Z" fill="url(#paint0_linear_176_2250)"/>
<defs>
<linearGradient id="paint0_linear_176_2250" x1="10.7244" y1="0" x2="10.7244" y2="21.4657" gradientUnits="userSpaceOnUse">
<stop stop-color="#FFB978"/>
<stop offset="1" stop-color="#EE6A40"/>
</linearGradient>
</defs>
</svg>
