<svg width="95" height="78" viewBox="0 0 95 78" fill="none" xmlns="http://www.w3.org/2000/svg">
<path d="M83.193 47.1296C82.7195 47.1422 82.2697 47.3198 81.9376 47.6253C81.6056 47.9309 81.417 48.3407 81.4113 48.7691C81.4056 49.1975 81.5832 49.6114 81.907 49.9241C82.2309 50.2368 82.6758 50.4241 83.1489 50.447C83.3959 50.4589 83.6432 50.4255 83.8756 50.3489C84.1081 50.2722 84.321 50.1538 84.5016 50.0008C84.6822 49.8478 84.8267 49.6634 84.9265 49.4586C85.0263 49.2538 85.0793 49.0329 85.0823 48.8091C85.0852 48.5853 85.0382 48.3633 84.9439 48.1564C84.8496 47.9495 84.71 47.762 84.5335 47.6051C84.3571 47.4482 84.1473 47.3252 83.917 47.2435C83.6866 47.1618 83.4404 47.1231 83.193 47.1296Z" fill="url(#paint0_linear_31_29)"/>
<path d="M94.0674 57.4326C92.9185 58.9084 91.8987 58.9975 90.488 57.7401C89.1623 56.5533 87.8297 55.3696 86.521 54.1644C86.2067 53.9153 85.9978 53.5752 85.9302 53.2022C85.8626 52.8292 85.9405 52.4466 86.1505 52.1198C86.3162 51.8018 86.5994 51.5461 86.9513 51.3968C87.3032 51.2475 87.7016 51.214 88.0779 51.3019C88.4071 51.3498 88.7147 51.4809 88.9651 51.6801C90.6817 53.2512 92.3644 54.85 94.064 56.4364L94.0674 57.4326Z" fill="url(#paint1_linear_31_29)"/>
<path d="M83.193 47.1296C83.4404 47.1231 83.6866 47.1618 83.917 47.2435C84.1473 47.3252 84.3571 47.4482 84.5335 47.6051C84.71 47.762 84.8496 47.9495 84.9439 48.1564C85.0382 48.3633 85.0852 48.5853 85.0823 48.8091C85.0793 49.0329 85.0263 49.2538 84.9265 49.4586C84.8267 49.6634 84.6822 49.8478 84.5016 50.0008C84.321 50.1538 84.1081 50.2722 83.8756 50.3489C83.6432 50.4255 83.3959 50.4589 83.1489 50.447C82.6758 50.4241 82.2309 50.2368 81.907 49.9241C81.5832 49.6114 81.4056 49.1975 81.4113 48.7691C81.417 48.3407 81.6056 47.9309 81.9376 47.6253C82.2697 47.3198 82.7195 47.1422 83.193 47.1296Z" fill="url(#paint2_linear_31_29)"/>
<path d="M87.15 30.8191C86.1615 29.7336 84.8255 28.9517 83.3258 28.5808C84.1518 26.6899 84.179 24.8667 83.1456 23.0865C82.1122 21.3064 80.4262 20.2395 78.2336 19.7783C78.7707 17.9336 78.6109 16.2087 77.5537 14.6007C76.4966 12.9928 74.8717 12.0919 72.9171 11.6522C72.9212 11.4886 72.9359 11.3254 72.9613 11.1634C73.529 8.70374 72.8219 6.59767 70.7042 4.96815C68.5864 3.33863 66.1117 3.00043 63.5044 3.95969C62.9912 4.15032 62.7328 4.01503 62.4031 3.71988C61.2532 2.6756 59.8833 1.85071 58.3745 1.29407C56.8656 0.737426 55.2486 0.460361 53.6193 0.479288C49.0302 0.442394 44.4412 0.479288 39.8453 0.479288C38.2103 0.479288 37.4658 1.14954 37.4998 2.63148C37.527 3.99659 37.6358 5.36477 37.714 6.77599C35.0727 6.01965 32.615 6.40089 30.5449 8.16262C28.4747 9.92434 28.0634 12.1811 28.6684 14.6192C25.1808 15.3632 22.1452 18.2441 23.2296 22.7145C18.1306 24.6761 16.9477 26.7299 18.0864 31.4586C17.172 31.9351 16.1896 32.2979 15.4044 32.8759C12.1513 35.268 12.0051 39.4217 15.0339 42.2595C16.1726 43.3264 17.359 44.3533 18.6541 45.5124C18.3478 45.7033 18.0528 45.9085 17.7703 46.1273C12.2136 51.1409 6.65572 56.1658 1.09674 61.2019C-0.140607 62.321 -0.330968 63.2762 0.525655 64.0674C1.40607 64.8821 2.47685 64.713 3.75839 63.5539C9.36723 58.4829 14.9727 53.4099 20.5747 48.3348C20.8055 48.0994 21.0179 47.8498 21.2104 47.5877C25.4629 49.7061 31.5035 47.5877 31.8162 41.9828C36.2047 41.6446 38.591 39.4432 38.9955 35.4739C43.435 35.1173 45.7941 32.9098 46.1884 28.9651C52.1848 28.8821 55.3189 23.0005 51.7701 18.6346L61.4275 9.91819C62.2943 9.13418 63.1271 8.32249 64.0381 7.58153C64.4463 7.22873 64.9508 6.98041 65.5 6.86199C66.0492 6.74357 66.6233 6.75931 67.1636 6.90759C67.7038 7.05587 68.1908 7.33137 68.5746 7.70587C68.9584 8.08036 69.2253 8.5404 69.3478 9.03887C69.6878 10.2502 69.1643 11.1911 68.2465 12.0243C65.731 14.2933 63.2189 16.5654 60.7102 18.8406C60.4439 19.0689 60.2015 19.319 59.9862 19.5877C59.763 19.9037 59.6614 20.2774 59.697 20.651C59.7327 21.0246 59.9036 21.3771 60.1833 21.6538C60.4722 21.9237 60.8551 22.0952 61.2675 22.1394C61.6799 22.1837 62.0966 22.0979 62.4473 21.8967C62.7496 21.709 63.0299 21.4937 63.2835 21.2541C65.2585 19.477 67.2131 17.6815 69.2017 15.9167C70.7382 14.5577 72.8525 14.6223 74.1239 16.0212C75.2014 17.208 75.0621 18.8467 73.7363 20.0673C71.6968 21.9121 69.6572 23.7568 67.638 25.6015C66.7542 26.4071 66.6182 27.228 67.2233 27.972C67.9677 28.8944 69.1677 28.9282 70.2283 27.9935C71.6594 26.7145 73.0871 25.4109 74.5012 24.1319C75.2966 23.4094 76.2212 22.9605 77.3702 23.105C77.9729 23.17 78.543 23.3875 79.0152 23.7324C79.4873 24.0774 79.8423 24.5358 80.0393 25.055C80.2364 25.5742 80.2675 26.1332 80.129 26.6677C79.9906 27.2022 79.6883 27.6905 79.2568 28.0766C77.7747 29.4386 76.262 30.7729 74.7833 32.138C73.8587 32.9928 73.8009 34.0135 74.5862 34.7115C75.3714 35.4094 76.4762 35.3264 77.4348 34.4962C78.0738 33.9397 78.6823 33.3556 79.3214 32.796C80.7423 31.5662 82.7207 31.5108 84.0022 32.6699C85.2838 33.8291 85.2701 35.6523 83.8866 36.9036C77.5843 42.6008 71.3568 48.3656 64.905 53.9213C60.8836 57.3679 55.8594 59.0774 50.3118 59.4217C49.3028 59.4485 48.3448 59.8289 47.6399 60.4824C42.5206 65.1742 37.3672 69.8322 32.2275 74.5055C31.9853 74.7156 31.7646 74.9451 31.568 75.1911C31.3139 75.5075 31.1943 75.8961 31.2312 76.2857C31.268 76.6753 31.4588 77.0398 31.7686 77.3126C32.0757 77.5857 32.48 77.7514 32.9096 77.7801C33.3391 77.8088 33.7659 77.6987 34.1141 77.4694C34.4048 77.2676 34.6765 77.0444 34.9265 76.8022L45.7601 66.979C45.9947 66.7699 46.2394 66.5701 46.4944 66.3641C49.4516 68.0501 52.9033 68.8882 56.3965 68.7684C56.775 68.8187 57.1211 68.9899 57.3721 69.2511C60.2003 71.7845 63.0081 74.3333 65.8262 76.876C66.0757 77.1189 66.3538 77.3365 66.6556 77.5247C66.8811 77.6556 67.1359 77.7396 67.4017 77.7706C67.6674 77.8017 67.9374 77.7791 68.1923 77.7044C68.4472 77.6297 68.6806 77.5048 68.8758 77.3387C69.0709 77.1726 69.2228 76.9694 69.3206 76.7438C69.6912 75.8983 69.2765 75.2526 68.6408 74.6685C65.5406 71.8706 62.4371 69.0789 59.3641 66.2595C59.0486 65.9436 58.6551 65.6996 58.2156 65.5474C57.7761 65.3951 57.3031 65.3389 56.835 65.3833C54.2053 65.5802 51.5709 65.0563 49.275 63.8798C49.8699 63.1143 50.5531 62.65 51.6035 62.7176C52.1542 62.7169 52.7029 62.658 53.2386 62.5424C59.5205 61.5493 64.8506 58.939 69.3376 54.856C74.9193 49.7614 80.5553 44.7099 86.1472 39.6338C86.56 39.2631 86.9461 38.8688 87.3029 38.4532C89.1522 36.258 89.0638 32.9682 87.15 30.8191ZM26.1768 44.7622C25.0142 45.2726 23.7972 45.2388 22.825 44.4363C20.9282 42.8314 19.0858 41.1711 17.3114 39.4463C16.1964 38.3517 16.3902 36.6484 17.5459 35.6092C18.109 35.0876 18.8722 34.7816 19.6777 34.7547C20.4831 34.7278 21.2692 34.982 21.8732 35.4647C23.7043 37.0143 25.4765 38.6213 27.1897 40.2856C27.6691 40.753 27.8356 41.4847 28.1483 42.0935C27.9648 43.3663 27.3529 44.2518 26.1768 44.7622ZM34.879 36.8575C34.3419 37.9643 33.3255 38.5208 31.8536 38.7361C31.1227 38.3856 30.2627 38.1611 29.6882 37.663C27.1728 35.4862 24.7185 33.248 22.2846 30.9943C21.9832 30.7288 21.7427 30.4123 21.5766 30.0627C21.4106 29.7132 21.3222 29.3375 21.3167 28.957C21.3112 28.5766 21.3886 28.1989 21.5444 27.8455C21.7003 27.4921 21.9316 27.17 22.2251 26.8975C22.8178 26.347 23.6281 26.0322 24.4775 26.0221C24.8981 26.0171 25.3157 26.0871 25.7064 26.228C26.0971 26.369 26.4533 26.5782 26.7546 26.8437C29.3211 29.0942 31.8536 31.3909 34.3419 33.703C35.3141 34.6038 35.4296 35.7353 34.8858 36.8575H34.879ZM42.0855 30.3456C41.5314 31.4555 40.5252 31.9997 38.6862 32.0612C38.2987 31.8706 37.408 31.6277 36.8166 31.1111C33.7436 28.4178 30.725 25.6692 27.72 22.9021C27.4097 22.6331 27.1618 22.311 26.9906 21.9544C26.8195 21.5979 26.7286 21.2141 26.7232 20.8254C26.7178 20.4367 26.7981 20.051 26.9593 19.6907C27.1205 19.3303 27.3595 19.0027 27.6623 18.7268C27.9559 18.4515 28.3078 18.2325 28.6971 18.0829C29.0863 17.9333 29.5049 17.8562 29.9279 17.8562C30.3508 17.8562 30.7694 17.9333 31.1587 18.0829C31.548 18.2325 31.8999 18.4515 32.1935 18.7268C35.3231 21.4939 38.4165 24.2918 41.4736 27.1204C41.9462 27.5266 42.261 28.06 42.3713 28.6411C42.4816 29.2223 42.3813 29.8201 42.0855 30.3456ZM47.1844 25.4417C46.7439 25.5598 46.2792 25.5852 45.8261 25.516C45.3731 25.4467 44.9435 25.2845 44.5704 25.042C44.2706 24.8513 43.9917 24.6351 43.7375 24.3963C40.2793 21.2705 36.8211 18.1416 33.3629 15.0097C32.6218 14.3425 32.0881 13.6046 32.1289 12.6084C32.1278 12.0666 32.3002 11.5361 32.6254 11.081C32.9505 10.626 33.4145 10.2659 33.9612 10.0442C34.52 9.77464 35.1591 9.67225 35.7863 9.7518C36.4136 9.83135 36.9969 10.0887 37.4522 10.487C38.2579 11.1203 38.9819 11.8367 39.74 12.5193C42.6803 15.1788 45.6411 17.8198 48.5543 20.5131C50.407 22.2103 49.6659 24.8083 47.1878 25.4417H47.1844ZM49.1594 16.0673L44.533 11.8951H50.7877C51.1739 11.919 51.5587 11.832 51.887 11.6465C52.2154 11.461 52.4707 11.1865 52.6165 10.8621C52.902 10.2472 52.8612 9.54617 52.2562 9.10958C51.807 8.797 51.2649 8.61286 50.6993 8.58076C49.2036 8.51619 47.7011 8.58076 46.2054 8.58076C43.1834 8.56231 41.256 6.79444 41.2288 3.98736C41.4191 3.93996 41.6136 3.90806 41.8101 3.89205C45.9369 3.89205 50.067 3.86746 54.1938 3.91665C56.5019 3.94432 58.4157 4.86669 59.993 6.27791L49.1594 16.0673Z" fill="url(#paint3_linear_31_29)"/>
<defs>
<linearGradient id="paint0_linear_31_29" x1="83.2468" y1="47.1289" x2="83.2468" y2="50.4493" gradientUnits="userSpaceOnUse">
<stop stop-color="#FFB978"/>
<stop offset="1" stop-color="#EE6A40"/>
</linearGradient>
<linearGradient id="paint1_linear_31_29" x1="89.987" y1="51.2539" x2="89.987" y2="58.6167" gradientUnits="userSpaceOnUse">
<stop stop-color="#FFB978"/>
<stop offset="1" stop-color="#EE6A40"/>
</linearGradient>
<linearGradient id="paint2_linear_31_29" x1="83.2468" y1="47.1289" x2="83.2468" y2="50.4493" gradientUnits="userSpaceOnUse">
<stop stop-color="#FFB978"/>
<stop offset="1" stop-color="#EE6A40"/>
</linearGradient>
<linearGradient id="paint3_linear_31_29" x1="44.3195" y1="0.462891" x2="44.3195" y2="77.7845" gradientUnits="userSpaceOnUse">
<stop stop-color="#FFB978"/>
<stop offset="1" stop-color="#EE6A40"/>
</linearGradient>
</defs>
</svg>
