<svg width="23" height="22" viewBox="0 0 23 22" fill="none" xmlns="http://www.w3.org/2000/svg">
<path d="M22.284 3.95194C21.1221 1.70179 19.3678 0.254218 16.6996 0H5.98458C5.94694 0.0333593 5.90136 0.056507 5.85222 0.0672313C2.69445 0.348763 0.0619216 3.04852 0.026205 6.11595C-0.0116126 9.32414 0.0745275 12.5344 0.000993246 15.7405C-0.0683391 18.892 3.50543 22.0939 6.53084 21.9867C9.79576 21.8712 13.0691 21.9573 16.3382 21.9615C17.4467 21.9858 18.5376 21.681 19.4729 21.0854C21.2944 19.911 22.5109 18.3542 22.7378 16.1985V5.98359C22.5907 5.30497 22.6201 4.60114 22.284 3.95194ZM20.6032 14.9884C20.5633 17.8142 18.372 19.8458 15.4369 19.8458H11.3652C10.0052 19.8458 8.64652 19.8458 7.28929 19.8458C4.47818 19.8458 2.29106 17.8583 2.23223 15.127C2.1692 12.3075 2.17551 9.48592 2.23223 6.66641C2.28056 4.078 4.45717 2.09888 7.27458 2.06106C10.0409 2.02044 12.8086 2.02044 15.5777 2.06106C18.519 2.10308 20.578 4.13683 20.62 7.04668C20.6494 9.69112 20.6452 12.3383 20.6074 14.9884H20.6032Z" fill="url(#paint0_linear_176_2253)"/>
<path d="M17.4879 4.34479C17.3887 4.33553 17.2887 4.34782 17.1946 4.38083C17.1006 4.41384 17.0149 4.46677 16.9433 4.53602C16.8716 4.60526 16.8158 4.68917 16.7796 4.78199C16.7434 4.87482 16.7277 4.97437 16.7336 5.07383C16.7439 5.26835 16.8283 5.45154 16.9697 5.58561C17.111 5.71968 17.2983 5.79442 17.4931 5.79442C17.6879 5.79442 17.8753 5.71968 18.0166 5.58561C18.1579 5.45154 18.2424 5.26835 18.2526 5.07383C18.2127 4.60531 17.9606 4.33849 17.4879 4.34479Z" fill="url(#paint1_linear_176_2253)"/>
<path d="M11.3719 5.44024C8.30023 5.49066 5.69922 7.96141 5.71393 10.8461C5.73164 12.341 6.33884 13.7686 7.40347 14.8183C8.46811 15.868 9.90409 16.4549 11.3992 16.4515C14.4372 16.4515 17.1117 13.9135 17.1117 11.0057C17.1138 7.98452 14.4498 5.38771 11.3719 5.44024ZM11.4265 14.3274C9.43056 14.3274 7.93256 12.8798 7.91786 10.9196C7.90525 9.02871 9.41165 7.55802 11.3845 7.55802C13.3573 7.55802 14.8931 8.99929 14.9183 10.9553C14.9183 12.8168 13.3741 14.319 11.4265 14.3274Z" fill="url(#paint2_linear_176_2253)"/>
<defs>
<linearGradient id="paint0_linear_176_2253" x1="11.3689" y1="0" x2="11.3689" y2="21.9894" gradientUnits="userSpaceOnUse">
<stop stop-color="#FFB978"/>
<stop offset="1" stop-color="#EE6A40"/>
</linearGradient>
<linearGradient id="paint1_linear_176_2253" x1="17.4925" y1="4.3418" x2="17.4925" y2="5.79442" gradientUnits="userSpaceOnUse">
<stop stop-color="#FFB978"/>
<stop offset="1" stop-color="#EE6A40"/>
</linearGradient>
<linearGradient id="paint2_linear_176_2253" x1="11.4128" y1="5.43945" x2="11.4128" y2="16.4515" gradientUnits="userSpaceOnUse">
<stop stop-color="#FFB978"/>
<stop offset="1" stop-color="#EE6A40"/>
</linearGradient>
</defs>
</svg>
