<svg width="121" height="58" viewBox="0 0 121 58" fill="none" xmlns="http://www.w3.org/2000/svg">
<path d="M27.0004 5.38741L26.8833 5.35043C27.2346 5.23334 27.4996 5.13473 27.7955 5.04844C27.9442 5.01086 28.0801 4.93374 28.1886 4.82524C28.2971 4.71674 28.3742 4.58091 28.4118 4.43214C28.4919 4.1548 28.5782 3.88363 28.6583 3.60629C28.7779 4.03417 28.9697 4.43851 29.2253 4.80192C29.616 5.07609 30.0491 5.28429 30.5072 5.41823C30.16 5.3887 29.8127 5.47403 29.5188 5.6611C29.2248 5.84816 29.0004 6.12661 28.8802 6.45362V10.6753C29.0209 10.6426 29.1499 10.5718 29.2531 10.4707C29.3564 10.3696 29.4299 10.2421 29.4656 10.1021C29.7491 9.19002 30.0326 8.25323 30.2915 7.35959C30.3117 7.26156 30.3606 7.17175 30.4319 7.10153C30.5032 7.03131 30.5938 6.98384 30.6921 6.96515C31.5919 6.70631 32.4855 6.42897 33.3792 6.15779C33.5636 6.12104 33.7298 6.02198 33.8499 5.87722C33.97 5.73246 34.0366 5.55082 34.0386 5.36276C34.0422 5.17978 33.9829 5.00111 33.8708 4.85646C33.7587 4.71182 33.6004 4.60993 33.4223 4.56773C32.4794 4.31504 31.5734 4.00689 30.6674 3.74188C30.5739 3.72271 30.4882 3.67614 30.4213 3.60809C30.3543 3.54003 30.3091 3.45359 30.2915 3.35977C30.045 2.5031 29.7738 1.64644 29.5149 0.789772C29.4906 0.695282 29.4598 0.602609 29.4225 0.512435C29.3639 0.355908 29.2572 0.222023 29.1176 0.130088C28.978 0.0381522 28.8129 -0.00708419 28.646 0.000901413C28.4825 0.00484056 28.3244 0.0607155 28.1948 0.160437C28.0652 0.260158 27.9706 0.39855 27.9249 0.555576C27.6352 1.50469 27.3086 2.4538 27.0621 3.40907C27.0453 3.48874 27.0053 3.56167 26.9472 3.6187C26.8891 3.67572 26.8154 3.71429 26.7354 3.72955C25.8294 3.99456 24.9235 4.26574 24.0237 4.56156C23.8097 4.62729 23.6207 4.7562 23.4813 4.93135C23.3765 5.06691 23.3221 5.23464 23.3272 5.4059L27.0004 5.38741Z" fill="#39486E"/>
<path d="M18.2303 35.7598H18.1749C17.2134 35.7598 16.252 35.7598 15.2967 35.7598C15.1365 35.7598 15.1426 35.8399 15.1426 35.9509V47.445C15.1426 47.6607 15.1426 47.6792 15.383 47.6792H17.9776C18.2303 47.6792 18.2303 47.7346 18.2303 47.4203V35.7598ZM27.8755 35.7598C27.8755 35.8276 27.8755 35.8769 27.8755 35.9262C27.8755 42.0893 27.8755 48.2379 27.8755 54.3722C27.8755 54.5386 27.9248 54.5879 28.0912 54.5879H30.7352C30.9817 54.5879 30.9817 54.5879 30.9817 54.3538V35.7536L27.8755 35.7598ZM5.95351 54.5756V26.3365H3.08153V54.4462C3.08153 54.5448 3.12467 54.5818 3.22328 54.5756H5.95351ZM9.06585 8.0199V23.255H21.3242V32.6598H24.5844C24.8309 32.6598 24.8309 32.6598 24.8309 32.4133V8.29723C24.8309 8.0199 24.8309 8.0199 24.5536 8.0199H9.06585ZM9.06585 57.6017H0V23.255H5.95967V5H27.857V32.6475H34.0201V57.6017H24.8309V36.031C24.8309 35.7536 24.8309 35.7536 24.5536 35.7536H21.3242V50.6991H12.1412V50.5142C12.1412 44.6346 12.1412 38.7571 12.1412 32.8817C12.1412 32.7091 12.172 32.6536 12.3631 32.6536H18.218V26.3365H9.05969V57.6017H9.06585Z" fill="#39486E"/>
<path d="M53.1255 47.4149C52.9839 47.5527 52.8159 47.6603 52.6316 47.7313C52.4473 47.8022 52.2505 47.8351 52.0531 47.8278C51.8633 47.8488 51.6713 47.8281 51.4903 47.7671C51.3094 47.7062 51.1439 47.6066 51.0055 47.4752C50.867 47.3437 50.7588 47.1837 50.6886 47.0061C50.6183 46.8286 50.5876 46.6379 50.5986 46.4473C50.5922 46.2565 50.6258 46.0666 50.6972 45.8895C50.7686 45.7125 50.8763 45.5524 51.0133 45.4195C51.1502 45.2866 51.3135 45.1838 51.4926 45.1177C51.6717 45.0517 51.8626 45.0238 52.0531 45.036C52.2453 45.0343 52.4359 45.071 52.6137 45.1441C52.7915 45.2171 52.953 45.3249 53.0885 45.4612L52.6201 45.9173C52.5453 45.8438 52.4567 45.7858 52.3594 45.7466C52.2621 45.7075 52.158 45.688 52.0531 45.6893C51.9549 45.688 51.8575 45.7074 51.7673 45.7461C51.677 45.7848 51.5959 45.842 51.5291 45.914C51.4623 45.986 51.4113 46.0713 51.3795 46.1642C51.3477 46.2571 51.3357 46.3556 51.3443 46.4535C51.3364 46.55 51.3491 46.6471 51.3815 46.7383C51.4139 46.8296 51.4652 46.9129 51.5322 46.9828C51.5992 47.0527 51.6803 47.1076 51.7701 47.1438C51.8599 47.1801 51.9563 47.1969 52.0531 47.193C52.2849 47.1816 52.5043 47.085 52.6694 46.9219L53.1131 47.4149H53.1255Z" fill="#E78569"/>
<path d="M55.1655 45.6761C55.0158 45.6712 54.8681 45.7111 54.7412 45.7906C54.6144 45.8702 54.5142 45.9859 54.4535 46.1227C54.3928 46.2596 54.3743 46.4115 54.4005 46.559C54.4266 46.7064 54.4962 46.8427 54.6003 46.9503C54.7044 47.0579 54.8383 47.132 54.9848 47.1631C55.1313 47.1942 55.2837 47.1808 55.4226 47.1247C55.5614 47.0686 55.6803 46.9723 55.7641 46.8481C55.8478 46.724 55.8926 46.5777 55.8927 46.428C55.9007 46.3293 55.8876 46.2301 55.8542 46.1369C55.8208 46.0437 55.7679 45.9587 55.6991 45.8875C55.6303 45.8164 55.5471 45.7607 55.4551 45.7243C55.3631 45.6878 55.2643 45.6714 55.1655 45.6761ZM55.1655 47.827C54.8927 47.8113 54.6305 47.7162 54.4112 47.5533C54.1919 47.3903 54.0252 47.1668 53.9314 46.9102C53.8377 46.6535 53.8212 46.3751 53.8839 46.1092C53.9466 45.8433 54.0858 45.6016 54.2842 45.4139C54.4827 45.2261 54.7318 45.1006 55.0008 45.0528C55.2697 45.005 55.5468 45.037 55.7978 45.1449C56.0488 45.2527 56.2628 45.4317 56.4132 45.6597C56.5637 45.8877 56.6441 46.1548 56.6446 46.428C56.6536 46.621 56.6208 46.8137 56.5485 46.993C56.4762 47.1722 56.3661 47.3337 56.2257 47.4665C56.0853 47.5993 55.9179 47.7003 55.7349 47.7625C55.552 47.8247 55.3577 47.8467 55.1655 47.827Z" fill="#E78569"/>
<path d="M59.2763 46.5502C59.2763 46.2359 59.2763 46.1126 59.2763 46.0078V45.0957H60.0282V47.7581H59.4119L58.3025 46.3222V47.7581H57.5137V45.0957H58.13L59.2517 46.5502H59.2763Z" fill="#E78569"/>
<path d="M62.6659 45.8358C62.4867 45.7074 62.2699 45.6423 62.0496 45.6509C61.8647 45.6509 61.686 45.7063 61.686 45.8481C61.686 45.9898 61.8647 46.0576 62.1298 46.0884C62.6598 46.1439 63.2083 46.3535 63.2083 46.9698C63.2083 47.5861 62.6413 47.8326 62.0435 47.8326C61.8228 47.8549 61.6 47.8246 61.3932 47.7443C61.1865 47.6639 61.0017 47.5358 60.854 47.3704L61.2669 46.8896C61.37 46.9906 61.4926 47.0694 61.6271 47.1214C61.7617 47.1733 61.9055 47.1972 62.0496 47.1916C62.2962 47.1916 62.4626 47.1053 62.4626 46.9574C62.4626 46.8095 62.3146 46.7417 62.0188 46.7109C61.4395 46.6616 60.9341 46.5137 60.9341 45.8481C60.9341 45.2872 61.4888 45.0407 62.0496 45.0407C62.4102 45.0237 62.7647 45.1375 63.0481 45.3612L62.6721 45.8358H62.6659Z" fill="#E78569"/>
<path d="M64.5765 45.7182H63.7999V45.0957H66.1049V45.7182H65.3222V47.7581H64.5765V45.7182Z" fill="#E78569"/>
<path d="M67.6581 45.7V46.3163H68.2189C68.2586 46.3175 68.2981 46.3101 68.3346 46.2946C68.3712 46.2792 68.404 46.2561 68.4309 46.2269C68.4578 46.1977 68.4781 46.163 68.4904 46.1253C68.5028 46.0876 68.5068 46.0476 68.5024 46.0082C68.5067 45.9674 68.5024 45.9261 68.4899 45.887C68.4773 45.8479 68.4568 45.8118 68.4295 45.7811C68.4023 45.7503 68.3689 45.7256 68.3316 45.7085C68.2943 45.6914 68.2538 45.6822 68.2128 45.6816L67.6581 45.7ZM69.3714 47.7585H68.5456L67.9293 46.8957H67.6642V47.7585H66.9124V45.0961H68.2189C68.3481 45.0823 68.4788 45.0957 68.6025 45.1355C68.7262 45.1753 68.8402 45.2405 68.9371 45.327C69.0341 45.4135 69.1118 45.5194 69.1654 45.6378C69.219 45.7561 69.2472 45.8844 69.2482 46.0144C69.2573 46.1913 69.2071 46.3662 69.1055 46.5114C69.0039 46.6565 68.8567 46.7636 68.6873 46.8156L69.3776 47.7154V47.7585H69.3714Z" fill="#E78569"/>
<path d="M72.6622 45.1025V46.5878C72.6622 46.9213 72.5298 47.2411 72.294 47.4769C72.0582 47.7126 71.7384 47.8451 71.405 47.8451C71.0715 47.8451 70.7517 47.7126 70.5159 47.4769C70.2802 47.2411 70.1477 46.9213 70.1477 46.5878V45.1087H70.8749V46.5878C70.8749 47.0069 71.0783 47.2041 71.3803 47.2041C71.6823 47.2041 71.8857 47.0192 71.8857 46.5878V45.1025H72.6622Z" fill="#E78569"/>
<path d="M76.0215 47.4149C75.8799 47.5527 75.7119 47.6603 75.5276 47.7313C75.3433 47.8022 75.1465 47.8351 74.9491 47.8278C74.7593 47.8488 74.5673 47.8281 74.3863 47.7671C74.2054 47.7062 74.0399 47.6066 73.9014 47.4752C73.763 47.3437 73.6548 47.1837 73.5846 47.0061C73.5143 46.8286 73.4836 46.6379 73.4946 46.4473C73.4882 46.2565 73.5218 46.0666 73.5932 45.8895C73.6646 45.7125 73.7723 45.5524 73.9093 45.4195C74.0462 45.2866 74.2095 45.1838 74.3886 45.1177C74.5677 45.0517 74.7586 45.0238 74.9491 45.036C75.1413 45.0343 75.3319 45.071 75.5097 45.1441C75.6875 45.2171 75.849 45.3249 75.9845 45.4612L75.5161 45.9173C75.4415 45.8435 75.3529 45.7853 75.2556 45.7461C75.1582 45.707 75.054 45.6876 74.9491 45.6893C74.8509 45.688 74.7535 45.7074 74.6633 45.7461C74.573 45.7848 74.4919 45.842 74.4251 45.914C74.3583 45.986 74.3073 46.0713 74.2755 46.1642C74.2437 46.2571 74.2317 46.3556 74.2403 46.4535C74.2324 46.55 74.2451 46.6471 74.2775 46.7383C74.3098 46.8296 74.3612 46.9129 74.4282 46.9828C74.4952 47.0527 74.5763 47.1076 74.6661 47.1438C74.7559 47.1801 74.8523 47.1969 74.9491 47.193C75.1809 47.1816 75.4003 47.085 75.5654 46.9219L76.0091 47.4149H76.0215Z" fill="#E78569"/>
<path d="M77.3708 45.7182H76.5942V45.0957H78.8992V45.7182H78.1165V47.7581H77.3708V45.7182Z" fill="#E78569"/>
<path d="M79.7007 47.7581V45.0957H80.4526V47.7581H79.7007Z" fill="#E78569"/>
<path d="M82.8008 45.6761C82.6014 45.6761 82.4102 45.7553 82.2692 45.8963C82.1282 46.0373 82.0489 46.2286 82.0489 46.428C82.0489 46.6274 82.1282 46.8186 82.2692 46.9596C82.4102 47.1006 82.6014 47.1799 82.8008 47.1799C83.0002 47.1799 83.1915 47.1006 83.3325 46.9596C83.4735 46.8186 83.5527 46.6274 83.5527 46.428C83.5527 46.2286 83.4735 46.0373 83.3325 45.8963C83.1915 45.7553 83.0002 45.6761 82.8008 45.6761ZM82.8008 47.827C82.5281 47.8113 82.2659 47.7162 82.0466 47.5533C81.8273 47.3903 81.6605 47.1668 81.5668 46.9102C81.4731 46.6535 81.4566 46.3751 81.5193 46.1092C81.582 45.8433 81.7211 45.6016 81.9196 45.4139C82.1181 45.2261 82.3672 45.1006 82.6361 45.0528C82.9051 45.005 83.1822 45.037 83.4332 45.1449C83.6842 45.2527 83.8981 45.4317 84.0486 45.6597C84.1991 45.8877 84.2795 46.1548 84.28 46.428C84.2879 46.6208 84.2544 46.813 84.1818 46.9917C84.1092 47.1705 83.999 47.3316 83.8589 47.4642C83.7187 47.5968 83.5517 47.6978 83.3692 47.7603C83.1867 47.8229 82.9929 47.8456 82.8008 47.827Z" fill="#E78569"/>
<path d="M86.8993 46.5502C86.8993 46.2359 86.8993 46.1126 86.8993 46.0078V45.0957H87.6574V47.7581H87.041L85.9255 46.3222V46.9385V47.789H85.1675V45.0957H85.7838L86.8993 46.5502Z" fill="#E78569"/>
<path d="M92.3843 47.4149C92.2427 47.5527 92.0747 47.6603 91.8904 47.7313C91.7061 47.8022 91.5093 47.8351 91.3119 47.8278C91.1221 47.8488 90.9301 47.8281 90.7491 47.7671C90.5682 47.7062 90.4027 47.6066 90.2642 47.4752C90.1258 47.3437 90.0176 47.1837 89.9474 47.0061C89.8771 46.8286 89.8464 46.6379 89.8574 46.4473C89.851 46.2565 89.8846 46.0666 89.956 45.8895C90.0274 45.7125 90.1351 45.5524 90.272 45.4195C90.409 45.2866 90.5723 45.1838 90.7514 45.1177C90.9305 45.0517 91.1214 45.0238 91.3119 45.036C91.5041 45.0343 91.6947 45.071 91.8725 45.1441C92.0503 45.2171 92.2117 45.3249 92.3473 45.4612L91.8789 45.9173C91.8041 45.8438 91.7155 45.7858 91.6182 45.7466C91.5209 45.7075 91.4168 45.688 91.3119 45.6893C91.2132 45.6871 91.1151 45.7059 91.0241 45.7442C90.9331 45.7825 90.8512 45.8396 90.7838 45.9117C90.7163 45.9838 90.6648 46.0693 90.6326 46.1627C90.6004 46.256 90.5883 46.3551 90.597 46.4535C90.589 46.55 90.6017 46.6471 90.6341 46.7383C90.6665 46.8296 90.7179 46.9129 90.7849 46.9828C90.8519 47.0527 90.9329 47.1076 91.0227 47.1438C91.1125 47.1801 91.209 47.1969 91.3057 47.193C91.5375 47.1816 91.757 47.085 91.922 46.9219L92.3658 47.4149H92.3843Z" fill="#E78569"/>
<path d="M93.9186 45.0957V47.1172H95.1944V47.7581H93.1667V45.0957H93.9186Z" fill="#E78569"/>
<path d="M98.1344 47.7581H96.002V45.0957H98.0789V45.7305H96.7477V46.1064H98.0049V46.7227H96.7477V47.1233H98.1344V47.7581Z" fill="#E78569"/>
<path d="M100.279 45.8414L99.934 46.6919H100.618L100.279 45.8414ZM100.895 47.3206H99.7059L99.5334 47.7581H98.7322L99.9278 45.0957H100.686L101.881 47.7581H101.074L100.895 47.3206Z" fill="#E78569"/>
<path d="M104.31 46.5502C104.31 46.2359 104.31 46.1126 104.31 46.0078V45.0957H105.068V47.7581H104.452L103.342 46.3222V46.9385V47.789H102.584V45.0957H103.201L104.328 46.5502H104.31Z" fill="#E78569"/>
<path d="M106.06 47.7581V45.0957H106.812V47.7581H106.06Z" fill="#E78569"/>
<path d="M109.592 46.5502C109.592 46.2359 109.592 46.1126 109.592 46.0078V45.0957H110.319V47.7581H109.702L108.593 46.3222V46.9385V47.789H107.854V45.0957H108.47L109.598 46.5502H109.592Z" fill="#E78569"/>
<path d="M113.259 45.8848C113.092 45.7288 112.87 45.6447 112.642 45.6506C112.211 45.6506 111.927 45.9095 111.927 46.4333C111.919 46.5317 111.931 46.6308 111.963 46.7241C111.995 46.8175 112.047 46.903 112.114 46.9751C112.182 47.0472 112.263 47.1043 112.354 47.1426C112.445 47.181 112.544 47.1997 112.642 47.1976C112.824 47.201 113.003 47.154 113.16 47.062V46.7168H112.482V46.1005H113.789V47.2838C113.662 47.4662 113.489 47.6112 113.287 47.7034C113.086 47.7956 112.863 47.8316 112.642 47.8077C112.451 47.8268 112.258 47.8042 112.077 47.7414C111.896 47.6787 111.73 47.5773 111.592 47.4442C111.453 47.3112 111.346 47.1497 111.276 46.9709C111.206 46.7921 111.176 46.6003 111.188 46.4087C111.18 46.2177 111.213 46.0272 111.284 45.8498C111.355 45.6723 111.463 45.5118 111.6 45.3787C111.737 45.2456 111.901 45.1428 112.081 45.0771C112.26 45.0114 112.452 44.9842 112.642 44.9974C112.837 44.9874 113.032 45.0203 113.213 45.0938C113.394 45.1673 113.557 45.2795 113.69 45.4226L113.252 45.8602L113.259 45.8848Z" fill="#E78569"/>
<path d="M55.6462 36.8487C54.9345 36.9803 54.2128 37.0504 53.4891 37.0582C51.0239 37.0582 48.5587 37.0582 46.0934 37.0582C45.4771 37.0582 45.3785 36.9288 45.3785 36.3187C45.3785 34.1061 45.3785 31.8936 45.3785 29.6749C45.3785 29.0586 45.5079 28.923 46.1181 28.9168H50.2905C51.7018 28.9168 53.1132 28.9168 54.5245 28.9969C55.1834 29.033 55.8334 29.1659 56.4535 29.3914C58.0436 29.9461 58.8078 31.1725 58.8078 33.0153C58.8078 35.1538 57.7539 36.4419 55.6462 36.8363V36.8487ZM45.3908 20.3378C45.3908 19.8202 45.5141 19.7215 46.0072 19.7215C48.3121 19.7215 50.6171 19.7215 52.9221 19.7215C53.7463 19.7404 54.5637 19.8753 55.3503 20.1221C56.1142 20.3204 56.7781 20.7934 57.2148 21.4508C57.6515 22.1081 57.8303 22.9034 57.717 23.6844C57.606 25.5764 56.583 26.7289 54.6354 27.0063C53.5567 27.1237 52.4726 27.1854 51.3875 27.1912C50.8451 27.1912 50.3028 27.1912 49.7605 27.1912H46.0626C45.5449 27.1912 45.4463 27.0679 45.4463 26.5749C45.4463 24.5041 45.4463 22.4271 45.4463 20.3563L45.3908 20.3378ZM57.717 28.1588C57.571 28.0978 57.454 27.9831 57.3903 27.8383C57.3903 27.752 57.5382 27.5856 57.6615 27.5055C58.1366 27.2176 58.5465 26.8338 58.8648 26.3785C59.1832 25.9233 59.4031 25.4066 59.5104 24.8615C59.6417 24.163 59.6811 23.4502 59.6275 22.7414C59.6106 21.8267 59.3113 20.9396 58.7707 20.2015C58.2301 19.4634 57.4746 18.9105 56.6076 18.6184C55.5018 18.2056 54.3304 17.9968 53.1501 18.0021C50.2966 18.0021 47.4493 18.0021 44.5958 18.0021C43.7576 18.0021 43.5358 18.2178 43.5358 19.0559V37.7053C43.5358 38.5497 43.77 38.7839 44.6266 38.7839H53.4028C54.5702 38.8082 55.7354 38.6734 56.8665 38.3833C57.6108 38.2232 58.3068 37.8897 58.8979 37.4099C59.4891 36.9302 59.9586 36.3177 60.2685 35.6222C60.6243 34.73 60.782 33.7711 60.7307 32.8119C60.7678 31.8253 60.5002 30.8512 59.9643 30.022C59.4284 29.1928 58.6502 28.5487 57.7354 28.1773L57.717 28.1588Z" fill="#39486E"/>
<path d="M99.4778 27.9197C98.0665 27.4082 96.5689 27.1308 95.1082 26.7364C94.0174 26.4406 92.908 26.1817 91.8418 25.7996C91.4458 25.6645 91.0877 25.4369 90.7972 25.1358C90.5068 24.8346 90.2923 24.4685 90.1716 24.0678C89.8971 23.302 89.9218 22.4609 90.2405 21.7125C90.5593 20.9641 91.1488 20.3636 91.8911 20.031C93.4627 19.2668 95.1267 19.3099 96.8216 19.4702C98.2375 19.6249 99.6239 19.9818 100.938 20.5302C101.092 20.595 101.259 20.6245 101.425 20.6165C101.615 20.5995 101.792 20.5157 101.925 20.3803C102.058 20.2448 102.139 20.0664 102.153 19.8769C102.172 19.701 102.132 19.5236 102.038 19.3736C101.944 19.2236 101.802 19.1099 101.635 19.0511C100.247 18.438 98.7807 18.023 97.2776 17.8185C95.4418 17.542 93.5682 17.6575 91.7802 18.1574C90.7395 18.4129 89.8126 19.0054 89.1438 19.8425C88.4749 20.6797 88.1018 21.7145 88.0823 22.7859C87.976 23.7897 88.2123 24.7999 88.7527 25.6525C89.2931 26.5051 90.1059 27.1499 91.0591 27.4821C92.036 27.856 93.0366 28.1648 94.0543 28.4066C95.3794 28.7517 96.7353 29.0229 98.048 29.3619C98.598 29.4713 99.1163 29.7032 99.5644 30.0404C100.012 30.3775 100.379 30.8113 100.636 31.3094C100.875 31.7731 101.015 32.2809 101.049 32.8012C101.083 33.3216 101.01 33.8433 100.834 34.334C100.657 34.8248 100.382 35.274 100.025 35.6538C99.6674 36.0336 99.2358 36.3359 98.7568 36.5418C96.9941 37.4478 95.1206 37.4786 93.21 37.2444C91.8204 37.072 90.464 36.694 89.1855 36.1227C89.047 36.049 88.889 36.0201 88.7334 36.04C88.5777 36.0598 88.4321 36.1275 88.3165 36.2337C88.1773 36.3319 88.0746 36.4735 88.0244 36.6363C87.9742 36.7991 87.9794 36.9739 88.0392 37.1335C88.1527 37.3954 88.35 37.6122 88.6 37.7498C90.6037 38.6536 92.7809 39.108 94.9788 39.081C96.6133 39.1268 98.2353 38.7847 99.712 38.0826C101.851 36.9979 103.028 35.2969 102.941 32.8317C102.855 30.3664 101.74 28.7332 99.4902 27.9012L99.4778 27.9197Z" fill="#39486E"/>
<path d="M117.412 27.9318C115.995 27.4203 114.497 27.1429 113.043 26.7485C111.946 26.4527 110.836 26.1877 109.77 25.8117C109.375 25.6762 109.018 25.4484 108.729 25.1472C108.439 24.846 108.226 24.4801 108.106 24.0799C107.831 23.3149 107.855 22.4744 108.173 21.7261C108.49 20.9778 109.078 20.3768 109.819 20.0431C111.391 19.2727 113.061 19.322 114.75 19.4823C116.168 19.6376 117.556 19.9946 118.873 20.5423C119.027 20.6075 119.193 20.637 119.36 20.6286C119.549 20.6078 119.725 20.5221 119.857 20.3861C119.99 20.2501 120.071 20.0722 120.087 19.8829C120.105 19.7079 120.064 19.5319 119.97 19.3832C119.877 19.2345 119.735 19.1218 119.569 19.0632C118.182 18.4509 116.715 18.036 115.212 17.8306C113.377 17.5478 111.502 17.6634 109.715 18.1695C108.67 18.421 107.738 19.0128 107.066 19.8519C106.395 20.6909 106.021 21.7295 106.005 22.8042C105.896 23.8083 106.131 24.8196 106.672 25.6726C107.213 26.5257 108.027 27.1701 108.981 27.5004C109.956 27.8742 110.955 28.1831 111.97 28.4249C113.295 28.77 114.651 29.0412 115.97 29.3801C116.52 29.4904 117.038 29.7227 117.486 30.0597C117.934 30.3968 118.3 30.8301 118.559 31.3277C118.796 31.7919 118.936 32.3 118.969 32.8204C119.002 33.3407 118.927 33.8624 118.751 34.3529C118.574 34.8434 118.298 35.2924 117.941 35.6721C117.583 36.0518 117.152 36.354 116.673 36.5601C114.94 37.3591 113.003 37.6024 111.126 37.2565C109.738 37.0899 108.383 36.7138 107.108 36.141C106.969 36.0651 106.81 36.0343 106.653 36.0531C106.496 36.0719 106.349 36.1393 106.233 36.2458C106.094 36.3457 105.991 36.4884 105.941 36.652C105.891 36.8157 105.896 36.9912 105.955 37.1517C106.078 37.3995 106.274 37.6038 106.516 37.7372C108.521 38.6382 110.697 39.0925 112.895 39.0685C114.529 39.1143 116.151 38.7721 117.628 38.07C119.773 36.9792 120.95 35.2843 120.858 32.813C120.765 30.3416 119.656 28.7207 117.412 27.8825V27.9318Z" fill="#39486E"/>
<path d="M65.9447 28.4369C65.9339 29.7755 66.1549 31.1058 66.598 32.369C66.9765 33.4043 67.5734 34.346 68.3483 35.13C69.6371 36.3927 71.3171 37.1795 73.1123 37.361C73.9297 37.468 74.7562 37.4866 75.5775 37.4165C76.5197 37.3516 77.4465 37.1437 78.3263 36.8002C79.8846 36.2137 81.1914 35.1051 82.0241 33.6632C82.7501 32.3789 83.1717 30.9452 83.2567 29.4723C83.3536 28.3317 83.2956 27.1831 83.0841 26.058C82.9376 25.2437 82.6848 24.4522 82.3322 23.7037C81.6592 22.2597 80.5342 21.0742 79.1275 20.3264C77.8817 19.6897 76.5078 19.3442 75.1091 19.3156C74.1379 19.2762 73.1657 19.3674 72.2187 19.5868C71.274 19.7984 70.376 20.1806 69.5686 20.7146C68.061 21.7405 66.9685 23.27 66.487 25.0288C66.1756 26.1337 66.02 27.2767 66.0248 28.4246L65.9447 28.4369ZM74.4682 39.1607C73.3811 39.1708 72.2975 39.0381 71.2449 38.7662C69.7129 38.4152 68.2987 37.6715 67.1414 36.6082C65.9841 35.5449 65.1235 34.1986 64.6443 32.7018C64.1399 31.1096 63.931 29.4386 64.028 27.7713C64.0724 26.5798 64.2798 25.3999 64.6443 24.2646C65.1156 22.7039 65.9892 21.2947 67.1773 20.1784C67.9993 19.4329 68.9521 18.8458 69.9876 18.4466C70.8115 18.1252 71.6698 17.8997 72.5453 17.7749C73.834 17.586 75.1426 17.5756 76.4342 17.744C77.9131 17.9137 79.3393 18.3947 80.6189 19.1554C82.1787 20.1038 83.4093 21.5088 84.1442 23.1799C84.5317 24.0431 84.8071 24.9523 84.9639 25.8854C85.1444 26.9228 85.2146 27.9764 85.1734 29.0286C85.1327 30.3737 84.8832 31.7044 84.4338 32.9729C83.6794 35.1078 82.1355 36.8723 80.1197 37.9034C79.1967 38.3798 78.208 38.7163 77.1861 38.9018C76.2874 39.0648 75.3754 39.1432 74.462 39.136L74.4682 39.1607Z" fill="#39486E"/>
<path d="M69.5194 29.1762L70.2035 29.6878C70.7397 30.0945 71.2759 30.4951 71.7997 30.9204C71.9891 31.0301 72.1276 31.2099 72.1853 31.421C72.243 31.6321 72.2152 31.8575 72.1079 32.0482L73.4206 31.851L73.9999 31.7647H74.1663C74.2472 31.7508 74.3303 31.7596 74.4064 31.79C74.4826 31.8205 74.5488 31.8715 74.5978 31.9373C74.6492 31.8744 74.7158 31.8256 74.7912 31.7954C74.8667 31.7652 74.9485 31.7547 75.0292 31.7647L75.5161 31.8325L77.1 32.0729C77.1 32.0359 77.1 31.9927 77.0507 31.9558C76.9976 31.8304 76.9799 31.6929 76.9995 31.5582C77.0191 31.4235 77.0751 31.2967 77.1616 31.1916C77.2577 31.0669 77.3673 30.9532 77.4882 30.8526L78.8626 29.811L79.6638 29.1947C79.6269 29.1777 79.5918 29.157 79.559 29.1331C79.3951 29.0416 79.2702 28.8935 79.2078 28.7165C79.1454 28.5394 79.1497 28.3457 79.2201 28.1717C79.3495 27.8388 79.4727 27.4999 79.5898 27.1671H79.4419L79.0537 27.2349C78.8802 27.2645 78.7054 27.2851 78.5298 27.2965C78.3732 27.3135 78.2156 27.2754 78.084 27.1888C77.9524 27.1022 77.8551 26.9725 77.8087 26.8219L77.7594 26.6987L77.3403 27.2164C77.1616 27.4321 76.989 27.6478 76.8041 27.8327C76.7202 27.9341 76.604 28.0035 76.4749 28.0294C76.3459 28.0552 76.2118 28.0358 76.0954 27.9744C75.9903 27.9157 75.91 27.821 75.8692 27.7078C75.8285 27.5945 75.83 27.4703 75.8735 27.3581L76.3789 25.0408C76.2446 25.1059 76.1042 25.1575 75.9598 25.1949C75.8797 25.2288 75.7934 25.2454 75.7064 25.2436C75.6195 25.2418 75.5339 25.2216 75.4553 25.1843C75.3767 25.1471 75.3069 25.0936 75.2505 25.0275C75.194 24.9613 75.1522 24.8839 75.1278 24.8005L74.9799 24.4677C74.9306 24.3444 74.8751 24.2211 74.8196 24.104C74.7642 23.9869 74.6717 23.7836 74.5916 23.6233L74.0554 24.8128C74.03 24.8934 73.9883 24.968 73.9328 25.0318C73.8774 25.0956 73.8094 25.1474 73.7331 25.1838C73.6568 25.2202 73.5738 25.2405 73.4893 25.2435C73.4048 25.2465 73.3206 25.232 73.2419 25.2011C73.0927 25.1634 72.9481 25.1096 72.8105 25.0408L73.3035 27.278C73.3223 27.3674 73.3347 27.458 73.3405 27.5492C73.3448 27.6835 73.2961 27.8141 73.2049 27.9128C73.1564 27.9607 73.0985 27.998 73.0349 28.0224C72.9712 28.0468 72.9032 28.0578 72.8351 28.0546C72.7363 28.0515 72.6395 28.0261 72.552 27.9801C72.4644 27.9342 72.3885 27.8691 72.3298 27.7895L72.2065 27.6355L71.4361 26.6925L71.3622 26.8651C71.3204 26.9938 71.2374 27.1052 71.126 27.182C71.0146 27.2589 70.881 27.297 70.7459 27.2903C70.6741 27.2963 70.6019 27.2963 70.5301 27.2903L70.1419 27.2225L69.655 27.1424H69.581C69.6981 27.4876 69.8276 27.8327 69.957 28.1717C70.006 28.2918 70.0198 28.4233 69.9969 28.551C69.974 28.6787 69.9153 28.7972 69.8276 28.8927C69.7313 28.9964 69.6189 29.0838 69.4948 29.1516L69.5194 29.1762ZM74.8135 35.216H74.0493L74.0862 32.4365C74.0893 32.4161 74.0893 32.3953 74.0862 32.3749L73.5192 32.455L71.8059 32.72C71.734 32.7351 71.6594 32.7305 71.59 32.7066C71.5205 32.6827 71.4588 32.6405 71.4115 32.5844C71.3733 32.5223 71.3531 32.4508 71.3531 32.3779C71.3531 32.305 71.3733 32.2336 71.4115 32.1715C71.4115 32.1098 71.4669 32.0544 71.4916 31.9927L71.5594 31.8448C71.6703 31.5921 71.6703 31.5675 71.4608 31.4011C70.9431 30.9882 70.413 30.5876 69.8769 30.1685L69.1989 29.6569C69.0164 29.5321 68.8578 29.3756 68.7305 29.1947L68.4963 28.8496L69.0387 28.6955C69.1102 28.6812 69.1803 28.6606 69.2482 28.6339C69.3219 28.5935 69.3885 28.5415 69.4454 28.4798C69.4454 28.4798 69.4763 28.449 69.4454 28.3997C69.316 28.0484 69.1866 27.7033 69.0633 27.352C69.026 27.2409 68.9952 27.1277 68.9709 27.013L68.9031 26.7357L69.1065 26.483H69.3037H69.4454L69.8029 26.5261L70.3021 26.6124L70.6842 26.674H70.7459H70.8136L71.017 26.2118L71.2944 25.5955L71.6518 25.9838C71.6818 26.0094 71.7086 26.0383 71.7319 26.0701L72.5824 27.1178L72.6502 27.1979L72.1757 25.0347C72.1757 24.8991 72.1141 24.7573 72.0956 24.6156C72.0835 24.5336 72.0964 24.4498 72.1325 24.3752L72.2435 24.1102L72.5331 24.1657C72.6073 24.1799 72.677 24.2116 72.7365 24.2581C72.9262 24.4184 73.1495 24.5343 73.3898 24.5971H73.4576V24.5355L74.0739 23.1611C74.117 23.0686 74.1663 22.9885 74.2157 22.8899L74.5793 22.2305L74.9799 23.0686C75.097 23.3275 75.2202 23.574 75.3373 23.8267L75.5037 24.2026C75.5469 24.3136 75.5962 24.4184 75.6455 24.5231C75.6948 24.6279 75.6455 24.5909 75.6886 24.5971H75.7564C75.9812 24.5264 76.1904 24.4135 76.3727 24.2643C76.4292 24.2166 76.4972 24.1847 76.5699 24.1718L76.8411 24.0979L76.9705 24.3567C77.0144 24.4355 77.0317 24.5262 77.0198 24.6156C76.9829 24.8066 76.9521 24.9977 76.9089 25.1826L76.459 27.2349C76.5627 27.0896 76.6738 26.9497 76.7918 26.8158L77.8272 25.4846L78.1292 26.1687C78.197 26.3227 78.2648 26.4583 78.3141 26.6001C78.3634 26.7418 78.3141 26.6679 78.4189 26.6679C78.5236 26.6679 78.727 26.6679 78.8811 26.6186L79.2509 26.5508L79.6145 26.483C79.6861 26.4738 79.7586 26.4738 79.8302 26.483H80.2986L80.1938 26.976C80.1757 27.0741 80.151 27.1709 80.1199 27.2657C79.9904 27.6355 79.861 28.0053 79.7193 28.3689C79.7029 28.4081 79.7028 28.4522 79.719 28.4915C79.7352 28.5308 79.7663 28.5621 79.8055 28.5784C79.919 28.6533 80.0517 28.6939 80.1877 28.6955H80.804L80.4403 29.1886C80.3965 29.2543 80.347 29.3162 80.2924 29.3734C80.1938 29.4659 80.089 29.5583 79.9781 29.6446L79.1584 30.2609L77.7902 31.2963C77.7165 31.3624 77.6484 31.4345 77.5868 31.512C77.5375 31.5737 77.5191 31.6045 77.5499 31.6846C77.5807 31.7647 77.6177 31.8387 77.6546 31.9188L77.7471 32.1345C77.7872 32.21 77.8017 32.2966 77.7884 32.3811C77.775 32.4655 77.7346 32.5434 77.6731 32.6029C77.622 32.6444 77.5624 32.6742 77.4985 32.6902C77.4346 32.7062 77.368 32.7079 77.3033 32.6953L75.3497 32.3995L75.0292 32.3502C75.0263 32.383 75.0263 32.416 75.0292 32.4488L75.0662 34.8524V35.1606L74.758 35.1975L74.8135 35.216Z" fill="#39486E"/>
</svg>
