<svg width="20" height="28" viewBox="0 0 20 28" fill="none" xmlns="http://www.w3.org/2000/svg">
<path d="M0.17132 7.9566C0.529305 6.1722 1.2866 4.57719 2.53987 3.24949C5.17802 0.454108 8.40815 -0.547365 12.1616 0.282445C14.6465 0.832274 16.6087 2.23155 18.0216 4.32951C19.6271 6.71442 20.0811 9.33117 19.4186 12.1354C18.9099 14.279 18.1297 16.3231 17.2052 18.3172C16.0797 20.7452 14.801 23.0889 13.1777 25.2268C12.3371 26.3347 11.4889 27.4533 10.1256 28H9.57685C9.42297 27.9367 9.26528 27.8765 9.11649 27.8017C8.49335 27.4913 7.99802 27.022 7.53131 26.5184C6.2596 25.1457 5.2486 23.59 4.33043 21.9734C2.67721 19.0596 1.30441 16.0298 0.438379 12.7841C0.0149021 11.1891 -0.156143 9.58899 0.17132 7.9566ZM9.85662 15.9431C13.3322 15.9386 15.9748 13.1736 15.997 9.84933C16.0199 6.45598 13.2711 3.71254 9.85916 3.70114C6.47261 3.68973 3.70157 6.43001 3.70411 9.80562C3.70666 13.1812 6.39313 15.9481 9.85662 15.9431Z" fill="url(#paint0_linear_105_2790)"/>
<defs>
<linearGradient id="paint0_linear_105_2790" x1="9.85626" y1="0" x2="9.85626" y2="28" gradientUnits="userSpaceOnUse">
<stop stop-color="#FFB978"/>
<stop offset="1" stop-color="#EE6A40"/>
</linearGradient>
</defs>
</svg>
