<svg width="78" height="69" viewBox="0 0 78 69" fill="none" xmlns="http://www.w3.org/2000/svg">
<path d="M34.1698 64.0579C40.8262 64.0862 47.3009 61.8872 52.5634 57.811C57.8258 53.7347 61.5736 48.0153 63.2103 41.5632C64.0019 38.5549 64.287 35.4358 64.0541 32.3338C63.9566 31.1672 64.447 30.3112 65.376 29.9335C65.7886 29.7669 66.2439 29.738 66.6742 29.8511C67.1045 29.9642 67.4868 30.2132 67.7641 30.561C68.0569 30.9134 68.226 31.3521 68.2454 31.8099C68.7815 42.9857 64.9709 52.3795 56.631 59.8636C52.0537 64.0286 46.3684 66.7792 40.2618 67.7832C29.1499 69.6321 19.2961 66.8115 10.944 59.2117C5.05303 53.8599 1.40697 47.1434 0.365237 39.2574C-1.34357 26.3393 2.95434 15.6265 13.0366 7.34134C17.603 3.58997 23.1231 1.18322 28.9794 0.390366C38.2758 -0.937691 46.7954 1.11531 54.4257 6.66513C55.1994 7.22864 55.6441 7.9475 55.4217 8.9344C55.3432 9.3612 55.1287 9.75114 54.8103 10.046C54.4919 10.3408 54.0866 10.5247 53.655 10.5701C52.9819 10.6859 52.4366 10.4026 51.9066 10.0188C48.4877 7.4601 44.5439 5.69157 40.3592 4.84057C32.0132 3.17746 24.2489 4.63954 17.2096 9.44917C10.5084 14.0182 6.18005 20.3539 4.74843 28.3344C2.61623 40.1894 6.32931 50.095 15.6683 57.7557C20.2069 61.4779 25.5252 63.4517 31.3553 64.0396C32.2925 64.0934 33.2319 64.0995 34.1698 64.0579Z" fill="#759DD9"/>
<path d="M77.1043 7.44828C76.611 6.19377 75.8121 5.08239 74.7802 4.21513C73.7482 3.34786 72.5159 2.75219 71.1953 2.48224C69.8746 2.2123 68.5074 2.27663 67.2179 2.66939C65.9284 3.06216 64.7575 3.77091 63.8115 4.73124C60.3848 8.09403 57.0128 11.5177 53.6105 14.9262C47.226 21.3066 40.8467 27.691 34.4724 34.0795C34.0795 34.4724 33.8632 34.5821 33.4276 34.1069C32.724 33.3149 31.9412 32.5839 31.1858 31.8437C28.4261 29.1023 25.7365 26.2817 22.8793 23.6408C20.7136 21.6274 18.0362 21.1065 15.2004 22.0143C9.22716 23.9302 7.58537 31.1523 12.0691 35.6725C18.0027 41.6427 23.9546 47.5966 29.9247 53.5343C32.3615 55.9528 35.5355 55.9406 37.9784 53.5008C50.3512 41.134 62.7231 28.7652 75.0939 16.3944C76.1094 15.405 76.8756 14.1889 77.3297 12.8458C77.4515 12.4742 77.4302 12.0569 77.6678 11.7218V9.28501C77.482 8.67886 77.3388 8.04529 77.1043 7.44828ZM72.1241 13.4398C66.2798 19.2759 60.4325 25.1202 54.5821 30.9725C48.1307 37.426 41.6782 43.8795 35.2248 50.3329C34.1648 51.3929 33.7018 51.3929 32.657 50.3329C26.7924 44.4765 20.9279 38.618 15.0633 32.7575C13.8906 31.5878 13.4032 30.2324 13.8571 28.6332C14.0327 27.94 14.405 27.3123 14.9293 26.8259C15.4535 26.3395 16.1073 26.0151 16.8117 25.8918C18.2921 25.5872 19.5287 26.0746 20.5827 27.1346C22.8834 29.4475 25.1892 31.7544 27.5001 34.0551L30.9848 37.5397C32.8885 39.4404 34.9842 39.4496 36.8788 37.5397C46.7661 27.6747 56.6504 17.8016 66.5316 7.9204C67.7226 6.72637 69.0841 6.23597 70.7198 6.702C72.4012 7.18936 73.4826 8.68191 73.4826 10.9664C73.4948 11.6426 72.9678 12.5991 72.1241 13.4398Z" fill="#759DD9"/>
</svg>
