<svg width="286" height="630" viewBox="0 0 286 630" fill="none" xmlns="http://www.w3.org/2000/svg">
<path d="M59.1152 578.984C59.1152 578.984 50.2734 607.756 59.1152 613.034C67.957 618.312 112.394 629.924 116.54 629.924C120.687 629.924 148.15 626.757 132.315 617.257C116.481 607.756 87.5576 597.715 82.4907 578.984H59.1152Z" fill="black"/>
<path d="M53.3393 535.509C53.3393 535.509 47.7488 553.919 39.3884 556.03C31.028 558.141 35.7318 578.983 59.1156 578.983C82.4995 578.983 65.8715 557.246 65.8715 557.246L66.8174 535.509H53.3393Z" fill="black"/>
<path d="M82.542 578.984C82.542 578.984 106.475 574.939 100.141 564.898C93.8075 554.857 82.542 557.247 82.542 557.247V578.984Z" fill="black"/>
<path d="M19.8124 258.407C19.8124 258.407 -2.56653 288.674 19.8124 322.234C32.4797 341.184 52.1056 424.966 52.1056 424.966C52.1056 424.966 31.9899 471.809 53.3386 526.507L59.1149 578.983H82.541L90.9099 452.766C90.9099 452.766 101.339 430.936 100.03 418.716C98.7214 406.497 82.541 342.012 82.541 342.012L75.7851 269.892L27.6493 260.071L25.3945 259.615L19.8124 258.407Z" fill="#2C3D77"/>
<path d="M105.907 264.184C105.907 264.184 142.212 366.561 146.096 380.858C148.208 388.737 150.834 393.863 123.388 437.337C95.9423 480.812 87.4045 497.642 87.4045 497.642L74.1799 535.509H53.3379C53.3379 535.509 84.5839 413.236 96.5588 400.746L74.1799 327.149L75.7844 269.859L105.907 264.184Z" fill="#2C3D77"/>
<path d="M82.541 308.959C82.541 308.959 91.8726 352.56 96.5426 362.542C101.559 373.258 102.327 402.815 100.064 408.727C98.1725 413.676 90.9099 452.801 90.9099 452.801" fill="#20315B"/>
<path d="M5.97983 155.194C5.97983 155.194 2.68633 180.166 0.912904 197.419C-0.156809 207.709 1.59479 218.096 5.97983 227.466" fill="#2C3D77"/>
<path d="M25.6818 261.304C25.6818 261.304 15.8857 291.613 19.8126 300.505C23.7395 309.398 28.5953 308.106 29.406 314.862C30.2167 321.618 42.504 363.969 53.3388 379.727C64.1736 395.485 63.802 426.056 63.802 426.056C63.802 426.056 51.7089 457.707 55.0024 464.615C58.2959 471.523 67.1968 525.849 65.3812 529.286C63.5655 532.723 68.2102 579.001 68.2102 579.001H59.1151L53.5668 526.254C53.5668 526.254 32.2181 476.64 52.224 425.304C52.224 425.304 38.8811 367.296 28.5784 341.429C23.9253 327.073 20.294 323.036 20.294 323.036C20.294 323.036 2.0699 302.6 13.3016 271.388C14.9247 267.048 16.9756 262.881 19.4241 258.948L25.6818 261.304Z" fill="#20315B"/>
<path d="M54.7571 43.7052L58.4982 49.4139L71.3766 29.5515C71.3766 29.5515 90.2003 29.8809 101.466 56.1867C101.466 56.1867 111.439 50.2753 108.382 40.3357C105.325 30.396 94.8619 4.44491 71.6975 5.06139H64.9416C64.9416 5.06139 68.1591 -0.850027 63.1682 0.104245C58.1773 1.05852 40.1559 11.0826 39.5226 23.7499C38.8892 36.4172 46.346 93.7833 46.346 93.7833V100.489L53.9971 97.1106L54.7571 43.7052Z" fill="#965D47"/>
<path d="M63.9871 5.07812L52.3838 13.5061" stroke="#070606" stroke-miterlimit="10"/>
<path d="M53.3384 13.5059C53.3384 13.5059 38.6274 30.497 52.1054 41.9904C65.5835 53.4839 63.7256 45.2924 63.7256 45.2924C63.7256 45.2924 67.2049 36.003 61.3864 32.7349C55.5678 29.4667 56.4545 22.601 57.1132 18.6319C57.7719 14.6628 53.3384 13.5059 53.3384 13.5059Z" fill="#8E5347"/>
<path d="M46.338 100.488C46.338 100.488 18.0139 102.346 10.5571 121.364C3.10025 140.382 0.000976562 161.055 0.000976562 161.055C0.000976562 161.055 8.91033 142.476 32.936 162.111L28.1815 176.467C28.1815 176.467 36.0353 186.837 35.6975 192.917C35.3597 198.998 30.6306 217.56 30.6306 217.56L19.8127 258.408C19.8127 258.408 74.5102 279.68 105.908 264.15V185.157C105.908 185.157 109.286 181.078 112.892 176.34C115.425 173.005 117.251 169.187 118.258 165.121C119.264 161.055 119.43 156.827 118.744 152.695L116.27 137.933C116.27 137.933 108.399 117.192 84.5258 109.085C84.5258 109.085 91.4675 117.158 75.7853 117.158C57.3755 117.133 55.298 110.96 46.338 100.488Z" fill="#0D1244"/>
<path d="M0.000976562 161.089H5.80261L31.019 167.887L32.936 162.136C32.936 162.136 12.9892 135.72 0.000976562 161.089Z" fill="#17264F"/>
<path d="M28.1645 176.492L31.0189 167.887C31.0189 167.887 43.2808 180.486 43.2808 188.847C43.2808 197.207 32.9358 228.369 32.9358 228.369L28.1814 261.304L19.8125 258.407C19.8125 258.407 30.1575 209.427 32.9358 201.185C35.7142 192.943 33.5523 180.233 28.1645 176.492Z" fill="#17264F"/>
<path d="M74.1807 72.6201C74.1807 72.6201 87.4982 76.3359 90.91 72.6201C90.91 72.6201 90.5975 80.989 84.703 81.3015C78.8085 81.6139 75.1603 80.381 74.1807 72.6201Z" fill="white"/>
<path d="M116.27 137.907C116.27 137.907 135.964 167.025 136.808 169.685C137.653 172.345 184.64 167.025 199.697 165.26C199.697 165.26 213.868 155.523 220.953 155.076C228.038 154.628 234.237 153.741 234.237 162.6C234.237 171.459 235.124 181.179 220.066 177.657C205.009 174.136 189.065 178.4 189.065 178.4C189.065 178.4 158.942 190.054 135.964 188.315C133.779 189.03 131.43 189.076 129.219 188.445C127.008 187.814 125.037 186.537 123.558 184.776C120.484 181.187 117.03 174.11 115.958 171.661C115.198 169.972 119.648 162.321 118.939 157.305L116.27 137.907Z" fill="#ECA989"/>
<path d="M118.888 157.238C118.888 157.238 124.233 177.624 129.241 177.624C134.249 177.624 139.797 175.935 144.805 177.624C149.813 179.313 175.409 175.336 175.409 175.336V180.647C175.409 180.647 178.737 186.711 135.921 188.248C135.921 188.248 128.895 191.626 123.152 184.262C117.41 176.898 115.907 171.595 115.907 171.595C115.907 171.595 114.851 166.029 118.888 157.238Z" fill="#DB967B"/>
<path d="M14.7285 114.422C14.7285 114.422 40.3672 139.58 35.6887 153.733C31.0102 167.887 28.1643 176.492 28.1643 176.492C28.1643 176.492 38.4417 184.692 35.6803 192.943C32.9188 201.193 30.6133 217.585 30.6133 217.585L19.8123 258.408C19.8123 258.408 66.8756 269.386 66.7912 267.992C66.7068 266.599 71.6808 142.029 65.8707 135.34C60.0606 128.652 51.5144 107.295 51.5144 107.295L46.3377 100.488C34.431 101.023 23.1552 105.993 14.7285 114.422Z" fill="#17264F"/>
<path d="M102.614 119.482C102.614 119.482 117.984 151.091 118.888 157.239C119.656 162.491 118.296 169.365 110.485 179.618C107.516 183.496 105.907 188.245 105.908 193.129V264.227C105.908 264.227 91.9738 271.405 87.2362 269.361V137.773C87.2362 137.773 93.8401 122.463 90.9097 119.482C87.9794 116.5 84.5254 109.061 84.5254 109.061C84.5254 109.061 95.9767 112.734 102.614 119.482Z" fill="#17264F"/>
<path d="M95.7319 209.326L102.842 207.536C103.206 207.445 103.585 207.438 103.952 207.515C104.319 207.593 104.663 207.753 104.958 207.983C105.254 208.213 105.493 208.508 105.657 208.845C105.822 209.181 105.908 209.551 105.908 209.926V238.816C105.909 239.139 105.846 239.46 105.723 239.759C105.6 240.058 105.42 240.33 105.191 240.559C104.963 240.788 104.692 240.97 104.393 241.094C104.094 241.218 103.774 241.282 103.451 241.282H96.3399C95.6859 241.282 95.0587 241.022 94.5963 240.559C94.1338 240.097 93.874 239.47 93.874 238.816V211.716C93.874 211.168 94.0566 210.635 94.3931 210.203C94.7295 209.77 95.2006 209.461 95.7319 209.326Z" fill="#4C5872"/>
<path d="M105.907 264.184V257.834C105.907 257.834 84.1869 274.85 22.0072 250.157L19.8115 258.408C19.8115 258.408 74.9397 279.74 105.907 264.184Z" fill="#A3805D"/>
<path d="M94.5328 268.136C94.9636 270.914 94.738 273.754 93.8741 276.429C92.4215 280.474 98.5187 280.153 98.5187 280.153L99.4308 266.785L94.5328 268.136Z" fill="#547A79"/>
<path d="M93.874 262.562C93.874 262.562 98.544 265.096 97.9782 272.628C97.4124 280.161 91.5348 301.78 99.4307 304.432C107.327 307.083 107.293 299.686 107.293 299.686C107.293 299.686 113.466 298.394 110.84 289.881C110.097 287.483 109.708 288.893 108.762 282.281C107.817 275.669 106.499 260.071 101.77 260.02C98.9325 259.992 96.1622 260.884 93.874 262.562Z" fill="#668E8E"/>
<path d="M34.9369 163.377C34.9369 163.377 45.3326 181.17 43.2805 192.866L41.2199 204.571C41.2199 204.571 33.6195 243.654 39.531 258.255L19.8037 250.596C19.8037 250.596 37.6815 184.802 32.9355 180.647L28.1641 176.492L34.9369 163.377Z" fill="#0D1244"/>
<path d="M34.8866 201.987L51.1092 208.583C51.768 208.848 52.3325 209.304 52.7299 209.892C53.1272 210.481 53.3392 211.175 53.3386 211.885V241.18C53.3443 241.497 53.2679 241.809 53.1167 242.088C52.9654 242.366 52.7447 242.601 52.4759 242.768C52.2071 242.936 51.8994 243.031 51.5829 243.044C51.2664 243.057 50.9519 242.988 50.67 242.844L35.0639 235.049L25.6816 231.384L32.4375 203.288C32.4948 203.031 32.6072 202.789 32.7669 202.579C32.9265 202.37 33.1297 202.197 33.3625 202.073C33.5952 201.95 33.852 201.878 34.1151 201.863C34.3782 201.848 34.6414 201.891 34.8866 201.987Z" fill="#4C5872"/>
<path d="M33.4342 201.396L39.1683 203.727C39.2649 203.769 39.3453 203.841 39.3971 203.932C39.449 204.024 39.4694 204.129 39.4554 204.234L35.1654 234.45C35.1562 234.521 35.1309 234.589 35.0914 234.649C35.0519 234.709 34.9991 234.76 34.9373 234.796C34.8754 234.833 34.8059 234.855 34.7343 234.861C34.6626 234.866 34.5905 234.856 34.5236 234.83L26.0787 231.494C25.9717 231.454 25.8832 231.375 25.8302 231.274C25.7773 231.173 25.7635 231.056 25.7916 230.945L32.8093 201.726C32.8253 201.661 32.8548 201.6 32.8959 201.548C32.9371 201.495 32.9888 201.452 33.0478 201.421C33.1069 201.39 33.1718 201.371 33.2384 201.367C33.305 201.363 33.3717 201.373 33.4342 201.396Z" fill="#3C4960"/>
<path d="M93.9503 166.29C93.9098 166.332 93.8613 166.366 93.8077 166.389C93.754 166.413 93.6963 166.425 93.6378 166.425C93.5821 166.434 93.5251 166.43 93.4709 166.415C93.4168 166.399 93.3666 166.372 93.324 166.335C93.2815 166.298 93.2474 166.252 93.2243 166.201C93.2012 166.149 93.1896 166.093 93.1902 166.037C93.1868 165.981 93.1949 165.924 93.2142 165.871C93.2334 165.818 93.2633 165.769 93.3021 165.728C93.3409 165.687 93.3877 165.654 93.4396 165.632C93.4915 165.609 93.5475 165.598 93.604 165.598C93.7197 165.595 93.832 165.637 93.9165 165.716L93.7814 165.851C93.7345 165.811 93.6742 165.79 93.6125 165.792C93.5836 165.794 93.5555 165.802 93.5296 165.815C93.5038 165.828 93.4808 165.846 93.462 165.868C93.4431 165.89 93.4288 165.916 93.4199 165.943C93.4109 165.971 93.4075 166 93.4098 166.029C93.4097 166.057 93.4154 166.084 93.4267 166.11C93.4379 166.136 93.4544 166.159 93.475 166.178C93.4956 166.197 93.52 166.212 93.5466 166.221C93.5732 166.23 93.6014 166.234 93.6294 166.231C93.6997 166.228 93.7661 166.197 93.8151 166.147L93.9503 166.29Z" fill="#E5856A"/>
<path d="M94.5835 166.358C94.5272 166.368 94.4693 166.365 94.4141 166.35C94.3588 166.335 94.3076 166.308 94.264 166.271C94.2204 166.234 94.1856 166.188 94.162 166.135C94.1384 166.083 94.1266 166.027 94.1275 165.969C94.1225 165.912 94.1299 165.855 94.1492 165.801C94.1686 165.747 94.1993 165.698 94.2395 165.657C94.2796 165.616 94.3281 165.584 94.3817 165.564C94.4352 165.543 94.4926 165.535 94.5497 165.539C94.6055 165.53 94.6624 165.534 94.7166 165.549C94.7708 165.565 94.8209 165.592 94.8635 165.629C94.9061 165.666 94.9401 165.712 94.9632 165.763C94.9863 165.815 94.998 165.871 94.9973 165.927C95.0037 165.984 94.9975 166.041 94.9791 166.095C94.9608 166.149 94.9309 166.198 94.8914 166.24C94.8519 166.281 94.8038 166.313 94.7506 166.333C94.6974 166.353 94.6404 166.362 94.5835 166.358ZM94.5835 165.724C94.5316 165.735 94.4848 165.762 94.4512 165.803C94.4176 165.844 94.3992 165.895 94.3992 165.948C94.3992 166.001 94.4176 166.052 94.4512 166.093C94.4848 166.134 94.5316 166.162 94.5835 166.172C94.6128 166.171 94.6416 166.164 94.668 166.151C94.6944 166.139 94.7179 166.121 94.7369 166.098C94.756 166.076 94.7702 166.05 94.7787 166.022C94.7872 165.994 94.7897 165.965 94.7862 165.936C94.7847 165.906 94.7764 165.876 94.7622 165.85C94.7479 165.823 94.7279 165.8 94.7036 165.783C94.6794 165.765 94.6515 165.753 94.6219 165.747C94.5924 165.741 94.562 165.742 94.5329 165.75L94.5835 165.724Z" fill="#E5856A"/>
<path d="M95.7576 165.961C95.7525 165.908 95.7525 165.854 95.7576 165.801V165.514H95.9772V166.299H95.7914L95.4451 165.885V166.307H95.2256V165.522H95.4283L95.7576 165.961Z" fill="#E5856A"/>
<path d="M96.7453 165.708C96.6907 165.671 96.6253 165.653 96.5595 165.657C96.5004 165.657 96.4497 165.657 96.4581 165.725C96.4666 165.792 96.5088 165.784 96.5848 165.784C96.6608 165.784 96.9057 165.851 96.9142 166.037C96.9226 166.223 96.7622 166.299 96.5848 166.307C96.5187 166.314 96.4522 166.305 96.3895 166.283C96.3269 166.262 96.2697 166.227 96.2217 166.181L96.3399 166.037C96.372 166.065 96.4096 166.087 96.4503 166.1C96.4909 166.113 96.5338 166.117 96.5764 166.113C96.6524 166.113 96.6946 166.113 96.6946 166.037C96.6946 165.961 96.6946 165.978 96.5595 165.97C96.4244 165.961 96.2386 165.97 96.2301 165.733C96.2217 165.497 96.3821 165.488 96.551 165.48C96.6565 165.472 96.7615 165.501 96.8466 165.564L96.7453 165.708Z" fill="#E5856A"/>
<path d="M97.302 165.649H97.1162V165.514H97.8002V165.699H97.5638V166.299H97.3442L97.302 165.649Z" fill="#E5856A"/>
<path d="M98.7464 166.19H98.5015L98.3073 165.937H98.2313V166.19H98.0117V165.405H98.3917C98.4303 165.399 98.4697 165.401 98.5074 165.411C98.5451 165.421 98.5802 165.439 98.6105 165.464C98.6407 165.489 98.6654 165.52 98.6831 165.554C98.7007 165.589 98.7107 165.627 98.7126 165.666C98.7169 165.718 98.7032 165.77 98.6741 165.813C98.6449 165.856 98.6019 165.888 98.5522 165.903L98.7718 166.165L98.7464 166.19ZM98.2144 165.607V165.793H98.3748C98.3867 165.793 98.3984 165.791 98.4092 165.786C98.4201 165.781 98.4298 165.774 98.4378 165.765C98.4457 165.757 98.4518 165.746 98.4555 165.735C98.4592 165.724 98.4605 165.712 98.4593 165.7C98.4606 165.688 98.4591 165.675 98.4549 165.663C98.4507 165.651 98.4439 165.64 98.435 165.632C98.4261 165.623 98.4153 165.616 98.4035 165.612C98.3916 165.607 98.3789 165.606 98.3664 165.607H98.2144Z" fill="#E5856A"/>
<path d="M99.6502 165.37V165.809C99.6567 165.858 99.6521 165.908 99.6368 165.955C99.6216 166.002 99.596 166.044 99.5619 166.08C99.5279 166.116 99.4863 166.143 99.4402 166.161C99.394 166.178 99.3446 166.185 99.2955 166.181C99.2461 166.19 99.1953 166.188 99.1469 166.174C99.0986 166.161 99.0539 166.136 99.0165 166.103C98.979 166.069 98.9496 166.028 98.9307 165.981C98.9117 165.935 98.9036 165.885 98.907 165.835V165.395H99.1266V165.835C99.1266 165.961 99.1941 166.003 99.287 166.003C99.3799 166.003 99.4306 165.944 99.4306 165.826V165.387L99.6502 165.37Z" fill="#E5856A"/>
<path d="M100.706 166.012C100.623 166.096 100.511 166.144 100.394 166.147C100.338 166.156 100.281 166.152 100.227 166.136C100.173 166.121 100.122 166.093 100.08 166.056C100.037 166.019 100.003 165.974 99.9802 165.922C99.9571 165.871 99.9454 165.815 99.9461 165.759C99.9426 165.702 99.9508 165.646 99.97 165.592C99.9893 165.539 100.019 165.491 100.058 165.449C100.097 165.408 100.144 165.375 100.195 165.353C100.247 165.331 100.303 165.319 100.36 165.319C100.473 165.317 100.582 165.36 100.664 165.438L100.537 165.573C100.49 165.532 100.43 165.511 100.368 165.514C100.339 165.515 100.31 165.522 100.284 165.534C100.257 165.547 100.234 165.565 100.215 165.587C100.196 165.609 100.182 165.635 100.173 165.663C100.165 165.692 100.162 165.721 100.166 165.75C100.166 165.778 100.171 165.806 100.183 165.832C100.194 165.858 100.21 165.881 100.231 165.9C100.252 165.919 100.276 165.933 100.302 165.942C100.329 165.952 100.357 165.955 100.385 165.953C100.419 165.952 100.452 165.944 100.483 165.929C100.513 165.915 100.54 165.894 100.563 165.868L100.706 166.012Z" fill="#E5856A"/>
<path d="M101.078 165.514H100.85V165.328H101.534V165.514H101.339V166.122H101.12L101.078 165.514Z" fill="#E5856A"/>
<path d="M101.795 166.072V165.286H102.014V166.072H101.795Z" fill="#E5856A"/>
<path d="M102.708 166.046C102.651 166.056 102.593 166.053 102.538 166.038C102.483 166.023 102.432 165.996 102.388 165.959C102.344 165.922 102.31 165.875 102.286 165.823C102.262 165.771 102.251 165.714 102.252 165.657C102.247 165.6 102.254 165.543 102.273 165.489C102.293 165.435 102.323 165.386 102.363 165.345C102.404 165.304 102.452 165.272 102.506 165.252C102.559 165.231 102.617 165.223 102.674 165.226C102.786 165.226 102.893 165.271 102.972 165.35C103.052 165.429 103.096 165.537 103.096 165.649C103.096 165.761 103.052 165.868 102.972 165.947C102.893 166.026 102.786 166.071 102.674 166.071L102.708 166.046ZM102.708 165.412C102.678 165.413 102.649 165.42 102.622 165.433C102.595 165.446 102.571 165.463 102.552 165.485C102.532 165.508 102.517 165.533 102.507 165.561C102.498 165.59 102.494 165.619 102.496 165.649C102.498 165.678 102.504 165.706 102.516 165.732C102.528 165.758 102.545 165.782 102.567 165.802C102.588 165.821 102.613 165.836 102.64 165.846C102.667 165.856 102.696 165.861 102.724 165.86C102.754 165.859 102.782 165.852 102.809 165.839C102.835 165.827 102.859 165.808 102.878 165.786C102.897 165.764 102.911 165.738 102.92 165.71C102.928 165.682 102.931 165.652 102.927 165.623C102.929 165.592 102.924 165.561 102.912 165.532C102.9 165.503 102.881 165.477 102.857 165.457C102.833 165.436 102.805 165.422 102.775 165.414C102.745 165.406 102.713 165.406 102.682 165.412H102.708Z" fill="#E5856A"/>
<path d="M103.873 165.624C103.873 165.531 103.873 165.497 103.873 165.464V165.193H104.092V165.979H103.907L103.56 165.565V165.996H103.341V165.21H103.527L103.873 165.624Z" fill="#E5856A"/>
<path d="M105.562 165.809C105.522 165.853 105.474 165.887 105.42 165.91C105.366 165.934 105.308 165.945 105.249 165.944C105.194 165.953 105.137 165.949 105.083 165.934C105.028 165.918 104.978 165.891 104.936 165.854C104.893 165.817 104.859 165.771 104.836 165.72C104.813 165.668 104.801 165.612 104.802 165.556C104.804 165.473 104.83 165.392 104.876 165.323C104.922 165.254 104.987 165.199 105.063 165.165C105.139 165.132 105.223 165.12 105.306 165.133C105.388 165.145 105.465 165.18 105.528 165.235L105.393 165.378C105.347 165.336 105.287 165.312 105.224 165.311C105.195 165.313 105.167 165.321 105.141 165.334C105.115 165.347 105.092 165.365 105.074 165.387C105.055 165.409 105.04 165.434 105.031 165.462C105.022 165.49 105.019 165.519 105.021 165.547C105.02 165.576 105.025 165.605 105.036 165.632C105.046 165.658 105.063 165.683 105.083 165.703C105.104 165.723 105.129 165.738 105.156 165.748C105.183 165.757 105.212 165.761 105.241 165.759C105.277 165.758 105.312 165.749 105.344 165.733C105.376 165.717 105.404 165.694 105.427 165.666L105.562 165.809Z" fill="#E5856A"/>
<path d="M105.95 165.108V165.708H106.33V165.894H105.73V165.108H105.95Z" fill="#E5856A"/>
<path d="M107.251 165.843H106.626V165.058H107.242V165.243H106.854V165.353H107.226V165.514H106.854V165.632H107.259L107.251 165.843Z" fill="#E5856A"/>
<path d="M108.028 165.683H107.682L107.631 165.818H107.395L107.715 165.016H107.943L108.323 165.793H108.095L108.028 165.683ZM107.834 165.252L107.749 165.505H107.952L107.834 165.252Z" fill="#E5856A"/>
<path d="M109.033 165.413C109.03 165.36 109.03 165.306 109.033 165.253V164.982H109.261V165.768H109.066L108.72 165.354V165.531V165.776H108.492V164.991H108.686L109.033 165.413Z" fill="#E5856A"/>
<path d="M109.564 165.742V164.965H109.784V165.75L109.564 165.742Z" fill="#E5856A"/>
<path d="M110.628 165.345C110.628 165.252 110.628 165.218 110.628 165.184V164.914H110.848V165.699H110.628L110.282 165.294V165.716H110.062V164.931H110.248L110.628 165.345Z" fill="#E5856A"/>
<path d="M111.668 165.109C111.616 165.064 111.55 165.04 111.482 165.041C111.356 165.041 111.28 165.126 111.28 165.286C111.278 165.315 111.283 165.344 111.294 165.37C111.304 165.397 111.321 165.421 111.342 165.441C111.362 165.461 111.387 165.477 111.414 165.486C111.441 165.496 111.47 165.5 111.499 165.497C111.549 165.512 111.602 165.512 111.651 165.497V165.396H111.474V165.219H111.862V165.573C111.81 165.645 111.737 165.698 111.653 165.726C111.569 165.755 111.479 165.756 111.394 165.732C111.309 165.707 111.234 165.656 111.179 165.587C111.123 165.518 111.091 165.434 111.085 165.345C111.079 165.289 111.085 165.232 111.103 165.178C111.121 165.125 111.15 165.075 111.188 165.034C111.227 164.992 111.273 164.959 111.326 164.937C111.378 164.915 111.434 164.905 111.491 164.906C111.549 164.902 111.608 164.911 111.664 164.931C111.719 164.952 111.769 164.983 111.812 165.024L111.668 165.109Z" fill="#E5856A"/>
<path d="M95.0729 160.557C95.0729 160.557 94.98 160.506 94.9716 160.472C94.9632 160.439 95.0138 160.396 95.0476 160.371C95.1822 160.279 95.2965 160.16 95.3837 160.022C95.4708 159.884 95.5289 159.73 95.5543 159.569C95.5839 159.359 95.5839 159.145 95.5543 158.935C95.5387 158.667 95.4401 158.41 95.2722 158.199C95.1043 157.989 94.8754 157.836 94.6169 157.762C94.2851 157.651 93.9359 157.603 93.5866 157.618L91.0532 157.719C90.8083 157.719 90.7492 157.795 90.7576 158.04C90.7576 158.961 90.8336 159.873 90.8674 160.793C90.9012 161.714 90.9434 162.626 90.9856 163.546C90.9856 163.791 91.0701 163.859 91.315 163.85L93.9075 163.741C94.2511 163.734 94.5921 163.68 94.9209 163.58C95.1382 163.526 95.3396 163.422 95.5085 163.275C95.6773 163.128 95.8088 162.943 95.8921 162.736C95.9901 162.466 96.0248 162.177 95.9934 161.891C95.9958 161.601 95.9088 161.317 95.744 161.078C95.5793 160.84 95.345 160.658 95.0729 160.557ZM91.3403 158.403C91.3403 158.251 91.3403 158.209 91.5176 158.209C92.2017 158.209 92.8773 158.142 93.5613 158.133C93.8034 158.127 94.0451 158.155 94.2791 158.218C94.5072 158.266 94.7092 158.398 94.8463 158.586C94.9835 158.775 95.0462 159.007 95.0223 159.239C95.0371 159.485 94.9582 159.727 94.8015 159.917C94.6447 160.106 94.4218 160.23 94.1778 160.261C93.8653 160.312 93.5444 160.329 93.2235 160.354H92.7421L91.6443 160.405C91.4923 160.405 91.4501 160.405 91.4501 160.219L91.3403 158.403ZM94.5662 163.141C94.3579 163.188 94.1461 163.219 93.9329 163.234L91.7541 163.327C91.5768 163.327 91.543 163.327 91.5345 163.116C91.5345 162.465 91.4754 161.807 91.4501 161.156C91.4501 160.971 91.4501 160.928 91.6612 160.92L92.8857 160.869H94.1356C94.3306 160.871 94.5243 160.902 94.7098 160.962C94.9341 161.024 95.1303 161.161 95.2656 161.35C95.4009 161.539 95.4671 161.769 95.453 162.001C95.4823 162.266 95.4083 162.533 95.2463 162.745C95.0844 162.957 94.8469 163.099 94.5831 163.141H94.5662Z" fill="#EDEDED"/>
<path d="M107.386 159.974C106.964 159.839 106.541 159.78 106.077 159.679C105.612 159.577 105.427 159.544 105.106 159.442C104.987 159.407 104.879 159.344 104.79 159.259C104.7 159.174 104.632 159.069 104.591 158.952C104.5 158.731 104.496 158.483 104.581 158.259C104.665 158.035 104.832 157.851 105.047 157.745C105.496 157.531 105.997 157.452 106.491 157.517C106.909 157.545 107.322 157.633 107.715 157.779C107.765 157.791 107.817 157.791 107.867 157.779C107.923 157.772 107.975 157.746 108.012 157.704C108.05 157.661 108.07 157.607 108.07 157.551C108.074 157.499 108.061 157.447 108.031 157.404C108.002 157.361 107.959 157.329 107.909 157.314C107.492 157.154 107.054 157.052 106.609 157.01C106.063 156.952 105.51 157.01 104.988 157.179C104.684 157.267 104.418 157.453 104.232 157.708C104.045 157.963 103.949 158.273 103.957 158.589C103.937 158.886 104.017 159.182 104.186 159.427C104.355 159.672 104.601 159.853 104.886 159.941C105.18 160.037 105.479 160.116 105.781 160.177C106.178 160.261 106.575 160.321 106.972 160.405C107.208 160.443 107.425 160.555 107.592 160.725C107.76 160.895 107.868 161.115 107.901 161.351C107.934 161.588 107.89 161.828 107.776 162.038C107.662 162.248 107.484 162.415 107.268 162.516C106.768 162.772 106.202 162.869 105.646 162.795C105.234 162.76 104.83 162.663 104.447 162.508C104.408 162.483 104.363 162.47 104.316 162.47C104.27 162.47 104.224 162.483 104.185 162.508C104.146 162.539 104.118 162.583 104.105 162.631C104.093 162.68 104.098 162.732 104.118 162.778C104.156 162.85 104.215 162.909 104.287 162.947C104.889 163.191 105.538 163.298 106.187 163.259C106.67 163.254 107.145 163.132 107.572 162.905C107.866 162.765 108.109 162.537 108.268 162.252C108.427 161.968 108.494 161.641 108.458 161.317C108.443 161.009 108.331 160.714 108.139 160.473C107.946 160.232 107.683 160.057 107.386 159.974Z" fill="#EDEDED"/>
<path d="M112.672 159.763C112.25 159.628 111.827 159.56 111.371 159.467C110.915 159.375 110.713 159.324 110.392 159.231C110.275 159.192 110.169 159.128 110.08 159.043C109.991 158.958 109.922 158.855 109.877 158.741C109.788 158.517 109.786 158.268 109.872 158.043C109.958 157.818 110.126 157.633 110.341 157.525C110.789 157.316 111.286 157.237 111.777 157.297C112.197 157.33 112.612 157.418 113.01 157.559C113.057 157.568 113.106 157.568 113.153 157.559C113.208 157.549 113.258 157.522 113.294 157.48C113.331 157.439 113.353 157.386 113.356 157.331C113.36 157.279 113.347 157.227 113.317 157.184C113.288 157.141 113.245 157.11 113.195 157.094C112.779 156.931 112.341 156.828 111.895 156.79C111.349 156.732 110.796 156.79 110.274 156.959C109.969 157.046 109.702 157.232 109.516 157.487C109.329 157.743 109.233 158.053 109.243 158.37C109.223 158.666 109.304 158.96 109.473 159.204C109.642 159.448 109.888 159.627 110.172 159.712C110.464 159.815 110.763 159.894 111.067 159.949C111.464 160.033 111.87 160.092 112.258 160.185C112.421 160.211 112.577 160.272 112.713 160.366C112.848 160.459 112.962 160.582 113.043 160.726C113.12 160.86 113.168 161.008 113.185 161.162C113.202 161.315 113.187 161.47 113.141 161.618C113.095 161.765 113.019 161.902 112.918 162.018C112.817 162.135 112.693 162.23 112.554 162.297C112.055 162.553 111.488 162.648 110.932 162.567C110.521 162.533 110.117 162.439 109.733 162.288C109.697 162.259 109.652 162.244 109.606 162.244C109.56 162.244 109.516 162.259 109.48 162.288C109.44 162.319 109.411 162.362 109.397 162.411C109.384 162.459 109.386 162.511 109.404 162.558C109.441 162.632 109.504 162.689 109.581 162.719C110.181 162.962 110.826 163.072 111.473 163.04C111.956 163.031 112.43 162.91 112.858 162.685C113.152 162.545 113.395 162.317 113.554 162.033C113.713 161.748 113.78 161.421 113.744 161.097C113.729 160.79 113.617 160.496 113.424 160.257C113.231 160.017 112.968 159.844 112.672 159.763Z" fill="#EDEDED"/>
<path d="M100.148 163.597C99.8282 163.613 99.5075 163.588 99.194 163.521C98.6579 163.414 98.1648 163.153 97.7753 162.77C97.5104 162.493 97.3036 162.165 97.1672 161.807C96.9979 161.348 96.9149 160.861 96.9223 160.371C96.9167 160.018 96.9622 159.665 97.0575 159.324C97.1782 158.854 97.4232 158.425 97.7668 158.083C98.0132 157.853 98.2994 157.67 98.6113 157.542C98.8473 157.432 99.0974 157.356 99.3545 157.314C99.7325 157.24 100.119 157.22 100.503 157.255C100.941 157.286 101.367 157.41 101.753 157.618C102.222 157.884 102.602 158.284 102.842 158.767C102.962 159.014 103.053 159.275 103.112 159.544C103.176 159.85 103.21 160.161 103.214 160.473C103.217 160.87 103.16 161.266 103.045 161.647C102.85 162.288 102.418 162.831 101.837 163.167C101.571 163.313 101.287 163.423 100.993 163.496C100.715 163.555 100.432 163.589 100.148 163.597ZM97.505 160.532C97.5153 160.928 97.5954 161.32 97.7415 161.689C97.8623 161.991 98.05 162.263 98.2904 162.483C98.6832 162.84 99.1871 163.052 99.7176 163.082C99.959 163.108 100.202 163.108 100.444 163.082C100.735 163.055 101.021 162.981 101.288 162.863C101.736 162.669 102.104 162.326 102.327 161.891C102.527 161.505 102.634 161.077 102.64 160.642C102.651 160.304 102.62 159.966 102.547 159.637C102.491 159.399 102.406 159.169 102.293 158.953C102.076 158.536 101.73 158.201 101.305 157.998C100.933 157.823 100.526 157.736 100.115 157.745C99.829 157.747 99.545 157.786 99.27 157.863C98.9942 157.937 98.7338 158.06 98.5015 158.226C98.0735 158.549 97.7741 159.013 97.657 159.535C97.5568 159.858 97.5056 160.194 97.505 160.532Z" fill="#EDEDED"/>
<path d="M99.0587 159.796L99.3374 160.1L99.4049 160.176C99.4153 160.189 99.4282 160.199 99.4428 160.206C99.4573 160.213 99.4732 160.218 99.4894 160.219C99.4894 160.219 99.5485 160.219 99.54 160.159C99.5316 160.1 99.54 160.159 99.54 160.1C99.4809 159.864 99.4218 159.636 99.3543 159.408V159.29C99.4191 159.346 99.4978 159.384 99.5823 159.399C99.6583 159.399 99.6921 159.399 99.7174 159.332C99.7427 159.264 99.8272 159.053 99.8863 158.918L99.937 158.8L100.097 159.104L100.199 159.306C100.203 159.321 100.211 159.334 100.221 159.344C100.231 159.355 100.243 159.364 100.257 159.37C100.27 159.375 100.285 159.378 100.3 159.377C100.315 159.376 100.329 159.372 100.342 159.366C100.424 159.34 100.499 159.297 100.562 159.239V159.408C100.52 159.636 100.477 159.864 100.444 160.1C100.444 160.1 100.444 160.168 100.444 160.176C100.458 160.187 100.476 160.193 100.494 160.193C100.513 160.193 100.53 160.187 100.545 160.176C100.597 160.115 100.645 160.05 100.689 159.982C100.755 159.907 100.817 159.828 100.874 159.746L100.959 159.915C100.967 159.941 100.984 159.963 101.007 159.977C101.031 159.991 101.059 159.996 101.085 159.991H101.229L101.44 159.94H101.516C101.52 159.976 101.52 160.013 101.516 160.05C101.49 160.159 101.456 160.266 101.415 160.371C101.403 160.402 101.403 160.437 101.416 160.468C101.428 160.499 101.452 160.525 101.482 160.539C101.537 160.56 101.597 160.56 101.651 160.539V160.59L101.567 160.666L100.942 161.181L100.866 161.266C100.852 161.286 100.845 161.309 100.845 161.333C100.845 161.357 100.852 161.381 100.866 161.401L100.925 161.536L100.376 161.477H100.207H100.157C100.152 161.505 100.152 161.533 100.157 161.561C100.157 161.789 100.157 162.017 100.157 162.245H100.021C100.021 162.009 100.021 161.781 100.021 161.544C100.026 161.519 100.026 161.494 100.021 161.468C100.021 161.468 100.021 161.468 99.9707 161.468H99.7512L99.2445 161.57C99.2398 161.539 99.2398 161.508 99.2445 161.477C99.2445 161.367 99.2445 161.316 99.1769 161.24L98.4844 160.751C98.4356 160.726 98.3947 160.688 98.3662 160.641H98.476C98.5077 160.623 98.5362 160.6 98.5604 160.573C98.5728 160.556 98.5795 160.535 98.5795 160.514C98.5795 160.493 98.5728 160.472 98.5604 160.455L98.4338 160.151V160.024H98.5858H98.8391H98.8898C98.9106 160.025 98.9311 160.019 98.9479 160.007C98.9648 159.994 98.977 159.977 98.9827 159.957C99.0052 159.902 99.0306 159.848 99.0587 159.796Z" fill="#EDEDED"/>
<path d="M46.0929 212.517C46.225 212.509 46.3576 212.509 46.4898 212.517C46.5543 212.52 46.6184 212.505 46.6749 212.473C46.7315 212.442 46.7784 212.396 46.8107 212.34C46.8782 212.247 46.9373 212.146 47.0049 212.044C47.0055 212.231 47.034 212.416 47.0893 212.593C47.1654 212.737 47.3511 212.83 47.5285 212.99C47.3937 212.936 47.2448 212.927 47.1046 212.965C46.9643 213.004 46.8404 213.086 46.7516 213.201L46.2364 214.89C46.297 214.894 46.3574 214.881 46.411 214.853C46.4647 214.825 46.5094 214.782 46.5404 214.73C46.7684 214.401 46.988 214.071 47.2076 213.733C47.2274 213.698 47.2573 213.67 47.2934 213.652C47.3295 213.634 47.3702 213.627 47.4103 213.632H48.5841C48.6625 213.64 48.7412 213.621 48.8072 213.578C48.8732 213.535 48.9226 213.47 48.9472 213.396C48.9681 213.32 48.9628 213.24 48.9321 213.168C48.9015 213.096 48.8472 213.036 48.7783 212.999L47.7987 212.34C47.7627 212.323 47.7328 212.295 47.7132 212.26C47.6935 212.226 47.6851 212.186 47.6889 212.146C47.6889 211.774 47.6889 211.394 47.6889 211.023V210.904C47.6817 210.834 47.6537 210.768 47.6086 210.714C47.5635 210.66 47.5032 210.62 47.4356 210.6C47.3698 210.582 47.2999 210.586 47.2361 210.61C47.1723 210.634 47.118 210.678 47.0809 210.736L46.3884 211.766C46.3722 211.796 46.3477 211.821 46.3177 211.837C46.2877 211.854 46.2536 211.861 46.2195 211.859H45.0372C44.9444 211.858 44.8534 211.884 44.7755 211.935C44.7171 211.975 44.6751 212.035 44.6572 212.104L46.0929 212.517Z" fill="#E5856A"/>
<path d="M32.3947 231.729L28.7803 230.632L33.0027 216.926L35.3757 217.652L37.6052 210.355L46.3456 213.024L42.9677 224.061L45.4336 224.813L42.3681 234.761L38.6946 233.646V233.545C39.5672 230.73 40.4342 227.893 41.2956 225.033C41.2956 224.914 41.2956 224.914 41.2196 224.881L40.012 224.518H39.9275L38.1119 230.488L34.4468 229.365V229.297L36.6002 222.254C36.6002 222.187 36.6002 222.17 36.71 222.195L38.9648 222.879H39.0492L39.8262 220.346L36.1695 219.231L32.3947 231.729ZM38.4412 211.96L36.5833 218.049L41.4729 219.56L40.3329 223.31H40.4173L41.6334 223.681C41.7347 223.681 41.7347 223.681 41.7601 223.614L44.6989 213.987C44.6989 213.877 44.6989 213.877 44.6229 213.843L38.5341 211.96H38.4412ZM31.5249 230.159L34.9704 218.885L33.8219 218.53V218.631C32.6959 222.325 31.5699 226.015 30.4439 229.703C30.4428 229.722 30.4428 229.742 30.4439 229.762C30.4439 229.762 30.4439 229.812 30.4439 229.829L31.5249 230.159ZM42.5708 225.32V225.387C41.8192 227.836 41.076 230.294 40.3244 232.743C40.3244 232.81 40.3244 232.836 40.3835 232.861L41.4391 233.182C41.5405 233.182 41.5405 233.182 41.5658 233.114L43.8037 225.784V225.691L42.5708 225.32ZM38.7199 224.146L37.5461 223.783C37.4869 223.783 37.4785 223.783 37.4701 223.842C36.9971 225.37 36.5327 226.907 36.0682 228.436C36.0682 228.52 36.0682 228.529 36.1273 228.554L37.1576 228.85C37.2589 228.85 37.2505 228.9 37.2927 228.774L38.6861 224.205L38.7199 224.146Z" fill="white"/>
<path d="M6.50362 155.059C6.50362 155.059 2.0785 194.024 0.305074 200.231C-1.46835 206.438 4.73019 229.45 12.6684 240.082C20.6066 250.714 37.471 279.934 37.471 279.934C37.471 279.934 33.9241 304.736 42.7828 308.275C51.6415 311.813 65.8711 300.303 65.8711 300.303L61.4376 285.254L45.4767 272.848C45.4767 272.848 39.0417 234.078 21.5608 204.656C21.5608 204.656 20.3701 198.457 32.9192 162.144C32.9361 162.136 23.3343 149.747 6.50362 155.059Z" fill="#ECA989"/>
<path d="M46.3379 100.488C46.3379 100.488 60.3648 122.006 73.7753 121.381C87.1858 120.756 88.7481 120.148 86.2484 110.943C84.0071 108.517 81.2314 106.646 78.1413 105.479L78.2933 86.3006C78.2933 86.3006 63.177 71.1421 52.5702 56.1777L52.2578 97.0256L46.3379 100.488Z" fill="#ECA989"/>
<path d="M75.3378 29.0535C75.3378 29.0535 99.3466 37.777 99.9716 51.5084C100.596 65.2398 96.2727 87.0698 81.9164 87.3654C67.5601 87.661 63.1772 80.221 63.1772 80.221L52.5704 56.1784C52.5704 56.1784 49.1418 39.9643 54.7577 43.7054C60.3735 47.4464 58.1863 49.9461 58.1863 49.9461C58.1863 49.9461 70.0091 29.9824 70.3469 29.0535C70.6847 28.1245 75.3378 29.0535 75.3378 29.0535Z" fill="#ECA989"/>
<path d="M59.5798 115.318C59.5798 115.318 57.2237 106.992 59.5798 100.455C61.9359 93.9189 59.5798 76.6576 59.5798 76.6576L52.503 65.0205L52.2581 97.0266L46.3467 100.455C46.3467 100.455 53.2039 110.547 59.5798 115.318Z" fill="#DB967B"/>
<path d="M14.7288 153.742C14.7288 153.742 15.5733 173.41 12.4403 181.146C9.30723 188.881 8.84277 193.813 9.8646 203.761C10.8864 213.709 26.6108 232.736 25.6819 236.266C24.7529 239.796 34.9712 264.894 34.9712 264.894L30.1999 267.427L19.8464 250.537C19.8464 250.537 6.33464 231.224 4.00385 222.619C1.67306 214.013 0.000976562 205.932 0.000976562 203.761C0.000976562 201.591 5.50704 170.472 6.48664 155.06C9.06665 153.891 11.9131 153.436 14.7288 153.742Z" fill="#DB967B"/>
<path d="M37.3701 317.404V353.236C37.423 354.799 38.0936 356.278 39.2349 357.348C40.3762 358.418 41.8951 358.992 43.4589 358.944H67.5606C69.1229 358.99 70.6396 358.415 71.7791 357.345C72.9186 356.275 73.588 354.798 73.6409 353.236V318.662C73.6456 315.408 72.7069 312.223 70.9385 309.491L63.2875 297.668C64.1448 297.399 64.8938 296.863 65.4255 296.139C65.9573 295.414 66.244 294.539 66.244 293.64C66.244 292.742 65.9573 291.866 65.4255 291.142C64.8938 290.417 64.1448 289.881 63.2875 289.612C62.3839 289.257 62.5781 288.489 63.2875 288.235C64.1448 287.966 64.8938 287.43 65.4255 286.706C65.9573 285.981 66.244 285.106 66.244 284.207C66.244 283.309 65.9573 282.433 65.4255 281.709C64.8938 280.984 64.1448 280.448 63.2875 280.179C62.6456 279.951 62.3585 279.149 63.2875 278.803C64.0528 278.55 64.7312 278.086 65.2447 277.464C65.7581 276.843 66.0858 276.089 66.1899 275.29C66.294 274.491 66.1703 273.678 65.8332 272.946C65.496 272.214 64.959 271.592 64.284 271.151C63.9727 270.97 63.6372 270.833 63.2875 270.746H51.3295L38.1555 312.396C37.642 314.016 37.3772 315.705 37.3701 317.404Z" fill="#638BCC"/>
<path d="M51.3721 266.785V271.388H64.2758L64.0478 266.785H51.3721Z" fill="#638BCC"/>
<path d="M50.7891 269.082V269.26C50.7956 269.399 50.8569 269.531 50.9596 269.625C51.0624 269.72 51.1983 269.771 51.338 269.766H64.3178C64.3865 269.768 64.4551 269.757 64.5195 269.733C64.5838 269.709 64.6428 269.672 64.693 269.625C64.7432 269.578 64.7836 269.521 64.812 269.459C64.8403 269.396 64.8561 269.328 64.8582 269.26V269.082C64.8561 269.013 64.8403 268.946 64.812 268.883C64.7836 268.82 64.7432 268.764 64.693 268.717C64.6428 268.67 64.5838 268.633 64.5195 268.609C64.4551 268.585 64.3865 268.573 64.3178 268.575H51.338C51.1983 268.571 51.0624 268.621 50.9596 268.716C50.8569 268.811 50.7956 268.943 50.7891 269.082Z" fill="#5754BF"/>
<g style="mix-blend-mode:multiply" opacity="0.33">
<path d="M37.3701 317.404V353.235C37.423 354.799 38.0936 356.278 39.2349 357.348C40.3762 358.418 41.8951 358.992 43.4589 358.944H58.1783C40.9845 336.81 45.511 307.346 49.8263 294.231C52.2559 286.743 54.23 279.114 55.7377 271.388L55.8644 270.712C55.9235 270.391 55.9911 270.07 56.0417 269.766C56.0924 269.462 56.1938 268.922 56.2613 268.575C56.3795 267.925 56.4893 267.334 56.5822 266.785H51.3717V268.542C51.232 268.537 51.0961 268.588 50.9934 268.682C50.8907 268.777 50.8294 268.909 50.8228 269.048V269.226C50.8294 269.365 50.8907 269.497 50.9934 269.592C51.0961 269.686 51.232 269.737 51.3717 269.732V270.678L38.1977 312.328C37.6631 313.968 37.384 315.68 37.3701 317.404Z" fill="#8BA2D9"/>
</g>
<path d="M63.2794 280.145C62.6376 279.917 62.3505 279.115 63.2794 278.769C63.872 278.612 64.4197 278.319 64.8787 277.913C65.3377 277.507 65.6952 276.999 65.9227 276.43C65.1758 277.364 64.1628 278.051 63.0176 278.397C60.4419 279.073 62.2069 280.238 63.2794 280.145Z" fill="#5177C5"/>
<path d="M63.2794 289.578C62.6376 289.35 62.3505 288.548 63.2794 288.202C63.872 288.045 64.4197 287.752 64.8787 287.346C65.3377 286.939 65.6952 286.431 65.9227 285.862C65.1758 286.797 64.1628 287.483 63.0176 287.83C60.4419 288.506 62.2069 289.654 63.2794 289.578Z" fill="#5177C5"/>
<path d="M66.5222 302.651L63.2794 297.635C64.0704 297.428 64.7769 296.979 65.2995 296.351C65.8221 295.722 66.1346 294.945 66.1929 294.13C65.9544 294.988 65.4448 295.746 64.7401 296.291C64.0354 296.836 63.1735 297.138 62.2829 297.153C59.437 297.39 63.6341 300.996 66.5222 302.651Z" fill="#5177C5"/>
<path d="M59.2845 262.082C59.2845 262.082 67.0454 262.175 67.9405 263.34C68.8357 264.506 71.0736 272.925 74.5782 274.808C76.833 276.016 77.8126 275.855 77.8971 275.298C77.8841 275.074 77.8194 274.856 77.7081 274.661C77.5967 274.466 77.4417 274.3 77.2552 274.175C74.1138 271.481 75.1947 263.872 74.0462 259.751C73.7673 258.604 73.2121 257.543 72.429 256.66C71.646 255.777 70.6588 255.098 69.5535 254.684C66.568 253.748 63.344 253.932 60.4837 255.199C60.2878 255.29 60.0987 255.394 59.9179 255.512C56.2697 257.75 59.2845 262.082 59.2845 262.082Z" fill="#454DAC"/>
<path d="M59.96 255.494C63.2619 255.089 70.0938 255.089 71.6899 261.406C73.6153 269.006 74.1389 273.009 77.9391 275.264C77.9262 275.04 77.8615 274.822 77.7501 274.627C77.6388 274.432 77.4838 274.266 77.2973 274.141C74.1558 271.447 75.2368 263.838 74.0882 259.717C73.8093 258.57 73.2542 257.509 72.4711 256.626C71.688 255.742 70.7008 255.064 69.5956 254.65C66.6101 253.714 63.3861 253.897 60.5258 255.165C60.3294 255.261 60.1403 255.371 59.96 255.494Z" fill="#5754BF"/>
<path d="M39.473 258.23H39.5406L42.0741 258.922L46.0347 260.096C46.7677 260.3 47.4304 260.702 47.9502 261.258C48.4701 261.813 48.827 262.501 48.982 263.246C49.114 263.845 49.1791 264.457 49.1762 265.07C49.1086 266.548 50.9243 266.126 50.9243 266.126L55.1467 264.057L62.0293 260.679L63.9379 259.742C63.9379 259.742 64.7317 258.272 67.7972 256.49C68.607 256.026 69.524 255.782 70.4573 255.781H76.1829V247.986L53.6351 247.353C51.0276 247.279 48.4831 248.162 46.4823 249.836L39.017 256.127C38.8474 256.27 38.72 256.456 38.6484 256.665C38.5768 256.875 38.5637 257.1 38.6106 257.316C38.6576 257.533 38.7627 257.732 38.9147 257.893C39.0666 258.054 39.2597 258.171 39.473 258.23Z" fill="#D7ECF4"/>
<path d="M42.04 258.948L46.0345 260.097C46.7674 260.301 47.4301 260.703 47.95 261.258C48.4698 261.814 48.8268 262.502 48.9817 263.247C49.1137 263.846 49.1789 264.457 49.176 265.071C49.1084 266.549 50.9241 266.126 50.9241 266.126L55.1465 264.057C55.2816 263.576 55.3576 263.272 55.3576 263.272C53.3534 262.967 51.4431 262.217 49.7671 261.076C47.2168 259.252 42.04 258.948 42.04 258.948Z" fill="#C6DEE5"/>
<path d="M39.473 258.231H39.5406C52.0981 248.257 70.1448 249.507 76.2167 250.284V247.979L53.6689 247.345C51.0613 247.271 48.5169 248.154 46.5161 249.828L39.017 256.128C38.8474 256.27 38.72 256.456 38.6484 256.666C38.5768 256.875 38.5637 257.1 38.6106 257.317C38.6576 257.533 38.7627 257.733 38.9147 257.894C39.0666 258.055 39.2597 258.171 39.473 258.231Z" fill="#E4F1FC"/>
<path d="M53.2036 266.785H62.3663C63.6116 266.785 64.6211 265.776 64.6211 264.53V262.022C64.6211 260.777 63.6116 259.767 62.3663 259.767H53.2036C51.9583 259.767 50.9488 260.777 50.9488 262.022V264.53C50.9488 265.776 51.9583 266.785 53.2036 266.785Z" fill="#5754BF"/>
<path d="M63.1777 266.785H61.9786V261.456C61.9786 261.356 62.0186 261.259 62.0899 261.188C62.1611 261.116 62.2578 261.076 62.3586 261.076H62.7893C62.8901 261.076 62.9867 261.116 63.058 261.188C63.1293 261.259 63.1693 261.356 63.1693 261.456V266.785H63.1777Z" fill="#454DAC"/>
<path d="M59.5801 266.786H60.8046V261.668C60.8046 261.509 60.7414 261.356 60.629 261.244C60.5165 261.132 60.364 261.068 60.205 261.068C60.046 261.068 59.8935 261.132 59.781 261.244C59.6686 261.356 59.6054 261.509 59.6054 261.668L59.5801 266.786Z" fill="#454DAC"/>
<path d="M58.3809 266.785H57.1817V261.456C57.1817 261.356 57.2217 261.259 57.293 261.188C57.3643 261.116 57.4609 261.076 57.5617 261.076H57.9924C58.0932 261.076 58.1898 261.116 58.2611 261.188C58.3324 261.259 58.3724 261.356 58.3724 261.456V266.785H58.3809Z" fill="#454DAC"/>
<path d="M54.792 266.786H55.9827V261.668C55.9838 261.59 55.9694 261.512 55.9402 261.439C55.911 261.366 55.8676 261.3 55.8126 261.244C55.7576 261.189 55.692 261.144 55.6198 261.114C55.5475 261.084 55.4699 261.068 55.3916 261.068C55.2326 261.068 55.0801 261.132 54.9676 261.244C54.8552 261.356 54.792 261.509 54.792 261.668V266.786Z" fill="#454DAC"/>
<path d="M52.3594 266.786H53.5585V261.668C53.5585 261.509 53.4954 261.356 53.3829 261.244C53.2705 261.132 53.118 261.068 52.959 261.068C52.7999 261.068 52.6474 261.132 52.535 261.244C52.4225 261.356 52.3594 261.509 52.3594 261.668V266.786Z" fill="#454DAC"/>
<path d="M76.2002 247.556V256.448H77.2811V255.773L80.8364 255.629C81.0926 255.62 81.3353 255.512 81.5134 255.328C81.6914 255.144 81.7909 254.897 81.7907 254.641V249.329C81.7918 249.082 81.7005 248.844 81.5349 248.661C81.3692 248.478 81.1412 248.364 80.8955 248.341L77.2811 248.003V247.556H76.2002Z" fill="#5754BF"/>
<path d="M76.2002 254.971V256.449H77.2811V255.774L80.8364 255.63C81.0926 255.621 81.3353 255.513 81.5134 255.329C81.6914 255.145 81.7909 254.898 81.7907 254.642V254.372L77.2811 254.076C77.2493 254.335 77.1197 254.572 76.9187 254.739C76.7177 254.905 76.4606 254.988 76.2002 254.971Z" fill="#454DAC"/>
<path d="M175.41 162.135V188.821C175.41 188.821 201.699 178.35 209.097 181.044C216.495 183.737 233.224 188.348 234.237 175.478C235.251 162.608 236.078 147.965 221.502 153.969C206.926 159.974 175.41 162.135 175.41 162.135Z" fill="#EFEFED"/>
<path d="M25.6826 269.859L46.9891 258.408L51.5155 269.859C51.5155 269.859 72.5264 290.541 65.8718 300.303C59.2172 310.066 43.2311 317.641 38.0037 308.959C32.7763 300.278 37.573 279.934 37.573 279.934L25.6826 269.859Z" fill="#EFEFED"/>
<path d="M58.1875 49.9453L73.1518 68.3045" stroke="#D1E5E3" stroke-miterlimit="10"/>
<path d="M78.2946 87.2636C78.2946 87.2636 89.5179 90.3966 95.4293 76.9862C95.4293 76.9862 98.4019 69.1662 98.9424 65.7207C98.9424 65.7207 90.0077 72.0966 73.1179 68.3048C73.1179 68.3048 74.1482 78.9116 70.6436 84.063C70.6773 84.063 71.7076 86.3515 78.2946 87.2636Z" fill="#D1E5E3" stroke="#D1E5E3" stroke-miterlimit="10"/>
<path d="M70.6767 84.0629L52.1064 56.541" stroke="#D1E5E3" stroke-miterlimit="10"/>
<path d="M25.6826 269.859L34.972 264.894C34.972 264.894 47.2002 274.909 46.4486 280.153C45.697 285.398 43.4591 294.797 47.8082 298.394C52.1573 301.992 54.8259 309.989 54.8259 309.989C54.8259 309.989 39.3633 317.936 36.5596 305.632C33.7559 293.327 37.5392 279.934 37.5392 279.934L25.7164 269.859" fill="#D3D3D1"/>
<path d="M175.41 175.335C175.41 175.335 197.451 171.205 204.832 172.801C212.213 174.397 216.596 174.49 221.511 173.882C226.426 173.274 234.263 172.43 234.263 172.43C234.263 172.43 235.791 180.03 231.729 181.93C227.667 183.83 225.446 186.262 207.239 180.68C194.8 180.368 175.419 188.838 175.419 188.838L175.41 175.335Z" fill="#D3D3D1"/>
<path d="M65.4744 47.8009L101.787 46.5088C101.787 46.5088 107.217 65.4 96.7796 64.243C86.3417 63.0861 84.4501 60.4682 84.4501 60.4682C84.4501 60.4682 77.9729 69.6731 71.2001 65.7209C64.4273 61.7687 65.4744 47.8009 65.4744 47.8009Z" fill="#E5E3E3"/>
<path d="M75.1014 65.0196C74.0265 65.1043 72.9527 64.844 72.0359 64.2764C67.8135 61.8105 67.0281 53.771 67.0957 49.4472L100.495 48.248C101.34 51.7865 102.361 58.4748 100.36 61.3545C100.099 61.7368 99.7503 62.0516 99.3437 62.2733C98.9371 62.495 98.4838 62.6171 98.0208 62.6297C97.6669 62.6629 97.3107 62.6629 96.9568 62.6297C94.1077 62.3974 91.2959 61.8305 88.5794 60.9407C86.9686 60.363 85.6275 59.2114 84.813 57.7063L84.5175 57.1574L83.0565 59.5473C83.0143 59.5473 79.3323 64.6902 75.1014 65.0196Z" fill="#EDEDED"/>
<path d="M73.1768 57.0314L76.6054 52.2432" stroke="white" stroke-miterlimit="10"/>
<path d="M75.2803 58.357L79.7729 51.998" stroke="white" stroke-miterlimit="10"/>
<path d="M77.1709 59.742L80.5911 54.9453" stroke="white" stroke-miterlimit="10"/>
<path d="M65.4744 47.8008L54.7578 43.7051L58.4989 49.4138L65.4153 51.6348L65.4744 47.8008Z" fill="#EDEDED"/>
<path d="M225.116 35.3193H216.502V492.517H225.116V35.3193Z" fill="#ACADAC"/>
<path d="M226.213 490.22L225.073 511.264C236.625 530.688 227.311 565.084 227.311 565.084C227.311 565.084 226.703 571.046 221.053 571.78C216.974 572.304 215.64 564.644 215.64 564.644C207.786 546.733 215.64 510.969 215.64 510.969V490.22H226.213Z" fill="#9EEF9E"/>
<path d="M216.502 359.662H225.107" stroke="#D6D8D6" stroke-miterlimit="10"/>
<path d="M216.502 230.759H225.107" stroke="#D6D8D6" stroke-miterlimit="10"/>
<path d="M219.626 490.194V511.104C219.626 511.104 217.346 544.883 223.114 561.874L225.107 569.796C225.107 569.796 218.224 575.986 215.64 564.644C213.512 555.296 207.305 545.5 215.64 510.969L215.944 490.194H219.626Z" fill="#8DDB8D"/>
<path d="M225.588 35.3193H215.97V81.3524H225.588V35.3193Z" fill="#9EEF9E"/>
<path d="M222.953 369.787L222.937 426.055" stroke="white" stroke-miterlimit="10"/>
<path d="M221.509 86.0059L221.501 142.274" stroke="white" stroke-miterlimit="10"/>
<path d="M222.954 367.431C223.448 367.431 223.849 367.03 223.849 366.536C223.849 366.041 223.448 365.641 222.954 365.641C222.459 365.641 222.059 366.041 222.059 366.536C222.059 367.03 222.459 367.431 222.954 367.431Z" fill="white"/>
<path d="M285.091 14.0293H156.518V23.5129H285.091V14.0293Z" fill="#9EEF9E"/>
<path d="M215.961 81.3525H220.242V35.3195H215.961V81.3525Z" fill="#8DDB8D"/>
<path d="M220.243 37.2781C225.107 37.2781 229.051 33.3347 229.051 28.4701C229.051 23.6056 225.107 19.6621 220.243 19.6621C215.378 19.6621 211.435 23.6056 211.435 28.4701C211.435 33.3347 215.378 37.2781 220.243 37.2781Z" fill="#9EEF9E"/>
<path d="M285.091 14.0293H156.518V17.0103H285.091V14.0293Z" fill="#81C981"/>
<path d="M219.424 35.3189C219.424 35.3189 210.134 30.0155 216.612 23.4961H212.963C212.963 23.4961 207.103 31.4258 217.532 37.2612C221.797 39.6511 218.503 35.927 218.503 35.927L219.424 35.302" fill="#8DDB8D"/>
<path d="M215.817 160C215.817 160 221.07 157.703 220.834 162.584C220.597 167.465 215.817 165.962 215.817 165.962H212.532C212.532 165.962 210.514 161.74 215.817 160Z" fill="#EFEFED"/>
</svg>
