<svg width="14" height="14" viewBox="0 0 14 14" fill="none" xmlns="http://www.w3.org/2000/svg">
<path d="M13.8021 5.98672C13.8111 5.44588 13.6766 4.92797 13.4955 4.42272C13.1147 3.36226 12.4785 2.44924 11.6151 1.68606C10.9374 1.08871 10.1354 0.632512 9.26069 0.346803C8.66813 0.148395 8.06043 0.0149832 7.42892 0.00711532C6.94528 0.000273666 6.45875 -0.0168305 5.97692 0.0498756C5.12501 0.167814 4.30295 0.432244 3.55114 0.830166C2.46918 1.39905 1.59783 2.17866 0.967763 3.1878C0.231664 4.3673 -0.0669596 5.64737 0.0444831 7.01536C0.11176 7.91166 0.380583 8.78391 0.832878 9.57345C0.869672 9.63385 0.892581 9.70095 0.900102 9.77034C0.907623 9.83973 0.899586 9.90985 0.876517 9.97608C0.613238 10.8494 0.36727 11.7275 0.111926 12.6029C0.0621553 12.7723 -0.018271 12.9385 0.003729 13.1226H0.0837947C0.196319 13.0966 0.31209 13.0866 0.424615 13.0589C1.4377 12.8078 2.45186 12.5605 3.4617 12.3043C3.57361 12.2726 3.69416 12.2838 3.79747 12.3354C4.92272 12.8653 6.10567 13.1202 7.36797 13.0329C7.79401 13.0074 8.21661 12.9442 8.63026 12.8441C10.0404 12.4877 11.2367 11.7997 12.1986 10.7526C12.9744 9.90767 13.4688 8.93136 13.718 7.83875C13.779 7.57193 13.7858 7.30031 13.8147 7.03075V6.03256C13.8044 6.01942 13.7998 6.00297 13.8021 5.98672ZM9.37646 11.3718C8.51955 11.7599 7.57353 11.9376 6.62534 11.8884C5.67714 11.8392 4.75719 11.5647 3.95003 11.0902C3.91031 11.0647 3.865 11.0481 3.81751 11.0416C3.77002 11.0352 3.72161 11.0391 3.67593 11.053C3.03685 11.2151 2.39668 11.3725 1.75688 11.5319C1.72781 11.5374 1.69842 11.5412 1.66888 11.5435C1.84921 10.9185 2.02701 10.3103 2.20734 9.7031C2.22262 9.65989 2.2266 9.61381 2.21893 9.56882C2.21127 9.52382 2.19219 9.48127 2.16334 9.44483C1.68871 8.76066 1.37747 8.01356 1.2754 7.20008C1.0857 5.69184 1.4918 4.33138 2.47891 3.13717C3.26695 2.18618 4.28039 1.53451 5.52465 1.26598C7.88407 0.758671 9.86443 1.39221 11.4254 3.14914C12.0745 3.87949 12.4532 4.74017 12.5978 5.68329C12.9664 8.08642 11.6825 10.3431 9.37646 11.3718Z" fill="url(#paint0_linear_176_222)"/>
<path d="M8.78922 9.61017C8.35932 9.62009 8.00876 9.49009 7.65063 9.3796C6.34109 8.97661 5.3511 8.17268 4.51294 7.16828C4.15877 6.74374 3.81651 6.31509 3.60553 5.80503C3.27589 5.00828 3.44359 4.30698 4.04336 3.68403C4.18763 3.53521 4.37444 3.48629 4.57713 3.48253C4.7028 3.48151 4.82841 3.48768 4.9533 3.501C5.06979 3.51229 5.1311 3.59782 5.17546 3.68676C5.25011 3.83592 5.31431 3.9902 5.38175 4.14244C5.50834 4.42774 5.63096 4.71442 5.76224 4.99768C5.78735 5.04753 5.79873 5.10261 5.79533 5.15776C5.79192 5.21292 5.77384 5.26636 5.74277 5.31309C5.63007 5.49266 5.49704 5.66003 5.34605 5.81221C5.18628 5.98052 5.18411 6.03492 5.30674 6.22786C5.85205 7.08686 6.60509 7.71666 7.58716 8.09468C7.7967 8.17542 7.87568 8.15968 8.01994 7.99752C8.18296 7.81587 8.34669 7.6349 8.49528 7.44196C8.60637 7.2976 8.6785 7.27775 8.86459 7.33112C8.99585 7.37337 9.12393 7.424 9.24797 7.48267C9.58049 7.62703 9.89535 7.80766 10.251 7.90447C10.3894 7.94211 10.4439 8.04576 10.4378 8.18055C10.4158 8.67282 10.2419 9.07855 9.76298 9.33752C9.44381 9.51199 9.11345 9.62043 8.78922 9.61017Z" fill="url(#paint1_linear_176_222)"/>
<defs>
<linearGradient id="paint0_linear_176_222" x1="6.90735" y1="0" x2="6.90735" y2="13.1226" gradientUnits="userSpaceOnUse">
<stop stop-color="#FFB978"/>
<stop offset="1" stop-color="#EE6A40"/>
</linearGradient>
<linearGradient id="paint1_linear_176_222" x1="6.93872" y1="3.48242" x2="6.93872" y2="9.61084" gradientUnits="userSpaceOnUse">
<stop stop-color="#FFB978"/>
<stop offset="1" stop-color="#EE6A40"/>
</linearGradient>
</defs>
</svg>
